<svg id="Layer_1" xmlns="http://www.w3.org/2000/svg" viewBox="0 0 128 128"><style>.st0{display:none}.st1{display:inline}.st2,.st3{fill:#999}.st3{display:inline}</style><g id="_x31_" class="st0"><g class="st1"><path class="st2" d="M127.4 55.5l-22.1-24.7c-.5-.5-1.2-.8-1.9-.8H24.6c-.7 0-1.4.3-1.9.8L.6 55.5c-.7.7-.8 1.8-.4 2.7.2.3.4.6.7.9l61.2 68.1c.5.5 1.2.8 1.9.8s1.4-.3 1.9-.8l61.2-68.1c.3-.2.5-.5.7-.9.4-.9.2-2-.4-2.7zM98.9 35L87.6 52.9 69.6 35h29.3zM82.3 54.6H45.7L64 36.5l18.3 18.1zM58.4 35l-18 17.9L29.1 35h29.3zm-34.2 1.7l11.3 18H8.2l16-18zm-16 22.9h29.9L58.8 116 8.2 59.6zm61.1 56.3l14.4-38.6c.5-1.3-.2-2.7-1.5-3.2s-2.8.2-3.3 1.5l-15 39.9-20.4-55.9h76.3l-50.5 56.3zm23.2-61.3l11.3-18 16.1 18H92.5z"/></g><g class="st1"><path class="st2" d="M64 0c-1.4 0-2.5 1.1-2.5 2.5v12.9c0 1.4 1.1 2.5 2.5 2.5s2.5-1.1 2.5-2.5V2.5C66.5 1.1 65.4 0 64 0z"/></g><g class="st1"><path class="st2" d="M87.1 9.9c-1-1-2.6-1-3.6 0L74.3 19c-1 1-1 2.6 0 3.5.5.5 1.1.7 1.8.7.6 0 1.3-.2 1.8-.7l9.2-9.1c1-1 1-2.5 0-3.5z"/></g><g class="st1"><path class="st2" d="M53.2 19L44 9.9c-1-1-2.6-1-3.6 0s-1 2.6 0 3.5l9.2 9.1c.5.5 1.1.7 1.8.7.6 0 1.3-.2 1.8-.7 1-1 1-2.5 0-3.5z"/></g><g class="st1"><ellipse class="st2" cx="84.6" cy="67.1" rx="2.5" ry="2.5"/></g></g><g class="st0"><g class="st1"><path class="st2" d="M81.1 68.3H70.4v-6.4c0-3.5-2.9-6.4-6.4-6.4h-4.3c-1.2 0-2.1 1-2.1 2.1v11.9l-5.1 5.1H38.4c-1.2 0-2.1 1-2.1 2.1V96c0 1.2 1 2.1 2.1 2.1H81c5.9 0 10.7-4.8 10.7-10.7v-8.5c0-5.8-4.8-10.6-10.6-10.6zM51.2 93.9H40.5v-15h10.7v15zm36.3-6.4c0 3.5-2.9 6.4-6.4 6.4H55.5V77.7l5.8-5.8c.4-.4.6-.9.6-1.5V59.7H64c1.2 0 2.1 1 2.1 2.1v8.5c0 1.2 1 2.1 2.1 2.1H81c3.5 0 6.4 2.9 6.4 6.4v8.7z"/></g><g class="st1"><path class="st2" d="M128 32V10.7C128 4.8 123.2 0 117.3 0H78.9C73 0 68.2 4.8 68.2 10.7V32c0 .7.1 1.4.2 2.1h-9c.1-.7.2-1.4.2-2.1V10.7C59.7 4.8 54.9 0 49.1 0H10.7C4.8 0 0 4.8 0 10.7V32c0 5.9 4.8 10.7 10.7 10.7V111H2.1c-1.2 0-2.1 1-2.1 2.1 0 8.2 6.7 14.9 14.9 14.9H113c8.2 0 14.9-6.7 14.9-14.9 0-1.2-1-2.1-2.1-2.1h-8.5V42.7c5.9 0 10.7-4.8 10.7-10.7zm-71.9 7.9c.4-.3.7-.7 1-1.1.1-.2.3-.3.4-.5h12.9c.1.2.3.3.4.5.3.4.7.7 1 1.1.2.2.4.3.6.5l.9.6c.3.2.7.4 1 .6l.6.3c.5.2 1 .4 1.5.5.1 0 .3.1.4.1.6.1 1.2.2 1.9.2h8.5V47H40.5v-4.3H49c.6 0 1.3-.1 1.9-.2.1 0 .3 0 .4-.1.5-.1 1-.3 1.5-.5l.6-.3c.4-.2.7-.4 1-.6l.9-.6c.4-.1.6-.3.8-.5zm-34.8 66.8h85.3c1.2 0 2.1-1 2.1-2.1V49.1c0-1.2-1-2.1-2.1-2.1h-3.4l4.3-4.3h5.5V111H14.9V42.7h5.5l4.3 4.3h-3.4c-1.2 0-2.1 1-2.1 2.1v55.5c0 1.1 1 2.1 2.1 2.1zm83.2-55.5v51.2h-81V51.2H29l7.9 7.9c.2.2.4.3.6.4.1 0 .1 0 .2.1.2.1.4.1.5.1h.2c.2 0 .5 0 .7-.1.8-.3 1.3-1.1 1.3-2v-6.4h46.9v6.4c0 .9.5 1.6 1.3 2 .2.1.5.1.7.1h.2c.2 0 .4 0 .5-.1.1 0 .1 0 .2-.1.2-.1.4-.2.6-.4l7.9-7.9h5.8zM4.3 32V10.7c0-3.5 2.9-6.4 6.4-6.4h38.4c3.5 0 6.4 2.9 6.4 6.4V32c0 1.2-.3 2.2-.9 3.2-.6 1-1.3 1.7-2.2 2.3-.1.1-.2.1-.3.2-.3.2-.7.3-1.1.5-.1 0-.3.1-.4.1-.5.1-1 .2-1.5.2H38.4c-1.2 0-2.1 1-2.1 2.1v11.9l-4.9-4.9-8.6-8.6c-.4-.4-.9-.6-1.5-.6H10.7c-3.6 0-6.4-2.9-6.4-6.4zm119.2 83.2c-1 4.9-5.3 8.5-10.5 8.5H14.9c-5.2 0-9.5-3.7-10.5-8.5h119.1zm-8.3-76.8h-8.5c-.6 0-1.1.2-1.5.6l-8.5 8.5-4.9 4.9V40.5c0-1.2-1-2.1-2.1-2.1H78.9c-.5 0-1-.1-1.5-.2-.1 0-.3-.1-.4-.1-.4-.1-.7-.3-1.1-.5-.1-.1-.2-.1-.3-.2-.9-.5-1.7-1.3-2.2-2.3-.5-.9-.9-2-.9-3.2V10.7c0-3.5 2.9-6.4 6.4-6.4h38.4c3.5 0 6.4 2.9 6.4 6.4V32c0 3.5-2.9 6.4-6.4 6.4h-2.1z"/></g><g class="st1"><path class="st2" d="M87.5 19.2h4.3v4.3h-4.3z"/></g><g class="st1"><path class="st2" d="M96 19.2h4.3v4.3H96z"/></g><g class="st1"><path class="st2" d="M104.5 19.2h4.3v4.3h-4.3z"/></g><g class="st1"><path class="st2" d="M41 14.5a6.64 6.64 0 0 0-9.4 0l-1.7 1.7-1.7-1.7a6.64 6.64 0 0 0-9.4 0c-1.3 1.3-2 2.9-2 4.7 0 1.8.7 3.5 2 4.7l9.6 9.6c.4.4 1 .6 1.5.6s1.1-.2 1.5-.6l9.6-9.6c1.3-1.3 2-2.9 2-4.7-.1-1.8-.8-3.5-2-4.7zm-3 6.4L29.9 29l-8.1-8.1c-.5-.5-.7-1.1-.7-1.7 0-.6.2-1.2.7-1.7.5-.5 1.1-.7 1.7-.7s1.2.2 1.7.7l3.2 3.2c.8.8 2.2.8 3 0l3.2-3.2c.9-.9 2.4-.9 3.4 0 .5.5.7 1.1.7 1.7 0 .6-.3 1.2-.7 1.7z"/></g></g><path class="st2" d="M123.5 4.6c-2.8-2.8-6.7-4.3-10.7-4.3H78.9c-.6 0-1.1.2-1.5.6-.4.4-.6.9-.6 1.5v12.4c0 1.5.8 3 2.1 3.7 1.3.8 2.9.8 4.3 0 1.8-1.1 3.8-1.4 5.9-1.1 4.6.8 7.7 5.3 6.9 9.9-.3 1.4-.9 2.7-1.8 3.8-1.6 2-4 3.1-6.6 3.1-1.5 0-3-.4-4.3-1.1-1.3-.8-2.9-.8-4.3 0-1.3.8-2.2 2.2-2.1 3.7l-.1 12.3c0 .6.2 1.1.6 1.5.4.4.9.6 1.5.6h12.2c-3.5 6.1-1.4 13.9 4.7 17.4 2 1.1 4.2 1.7 6.4 1.7.9 0 1.8-.1 2.8-.3 5-1.1 8.9-5.1 9.8-10.1.6-3 0-6.1-1.6-8.8h12.4c1.2 0 2.1-1 2.1-2.1V15c.2-3.8-1.4-7.6-4.2-10.4zm.1 42.5h-10.3c-1.5 0-2.9.8-3.7 2.1-.8 1.3-.8 2.9 0 4.3 1.1 1.8 1.4 3.8 1 5.8-.9 4.6-5.3 7.7-9.9 6.8-1.4-.3-2.7-.9-3.8-1.7-3.3-2.6-4.2-7.2-2.1-10.8.8-1.3.8-2.9 0-4.3-.8-1.3-2.2-2.1-3.8-2.1h-9.9l.1-10.3c1.9 1.1 4.1 1.8 6.3 1.8 7.1.2 12.9-5.4 13.1-12.4.2-6.4-4.4-11.9-10.7-12.9-3-.6-6.1 0-8.7 1.6V4.8h31.9c5.9 0 10.7 4.8 10.7 10.6v31.7zm-55-38.3a8.3 8.3 0 0 1-6.7-6.7c0-1.2-1-2.1-2.1-2.1-1.2 0-2.1 1-2.1 2.1A8.3 8.3 0 0 1 51 8.8c-1.2 0-2.1 1-2.1 2.1s1 2.1 2.1 2.1c3.4.6 6.1 3.3 6.7 6.7 0 1.2 1 2.1 2.1 2.1 1.2 0 2.1-1 2.1-2.1a8.3 8.3 0 0 1 6.7-6.7c1.2 0 2.1-1 2.1-2.1s-.9-2.1-2.1-2.1zM59.7 14c-.8-1.2-1.9-2.2-3.1-3 1.2-.8 2.2-1.9 3.1-3 .8 1.2 1.9 2.2 3.1 3-1.2.8-2.2 1.8-3.1 3zm37.9 63.5c-.4-.4-1-.6-1.6-.6H83.6c-1.5 0-3 .8-3.7 2.1-.8 1.3-.8 2.9 0 4.3 1.1 1.8 1.4 3.8 1.1 5.8-.8 4.6-5.3 7.7-9.9 6.8-1.4-.3-2.7-.9-3.8-1.8-2-1.6-3.1-4-3.2-6.5 0-1.5.4-3 1.2-4.3.8-1.3.8-2.9 0-4.3-.8-1.3-2.2-2.1-3.8-2.1l-10.2-.1V66.6c1.9 1.1 4.2 1.7 6.4 1.7 7.1 0 12.8-5.6 12.9-12.7 0-6.2-4.4-11.5-10.5-12.6-3-.6-6.1 0-8.7 1.6V32.2c0-1.2-1-2.1-2.1-2.1H14.9C6.7 30.1 0 36.8 0 45v33.9c0 .3.1.6.2.8v33.5c0 8.2 6.7 14.9 14.9 14.9H49c.3 0 .7-.1 1-.3h33.2c8.2 0 14.9-6.7 14.9-14.9V79c.1-.6-.1-1.1-.5-1.5zM4.3 45c0-5.9 4.8-10.6 10.7-10.6h32v10.2c0 1.5.8 3 2.1 3.7 1.3.8 2.9.8 4.3 0 1.8-1.1 3.8-1.4 5.9-1.1 4.6.8 7.7 5.3 6.9 9.9-.3 1.4-.9 2.7-1.8 3.8-1.6 2-4 3.1-6.6 3.1-1.5 0-3-.4-4.3-1.1-1.3-.8-2.9-.8-4.3 0-1.3.8-2.1 2.2-2.1 3.8v9.9H37c2.5-4.5 2-10.1-1.3-14.2-.6-.8-1.3-1.5-2.1-2.1-5.5-4.4-13.6-3.6-18 1.9-1.3 1.7-2.2 3.6-2.6 5.7-.6 3 0 6.1 1.6 8.7H4.3V45zm10.8 78.6c-5.9 0-10.7-4.8-10.7-10.6V81.1h10.3c1.5 0 2.9-.8 3.7-2.1.8-1.3.8-2.9 0-4.3-2.3-4.1-.9-9.3 3.2-11.6 3.6-2 8.1-1.2 10.7 1.9 1.1 1.5 1.8 3.3 1.7 5.2 0 1.5-.4 3-1.2 4.3-.8 1.3-.8 2.9 0 4.3.2.3.4.7.7.9.8.9 2 1.5 3.2 1.5h10v10c-2-1.1-4.2-1.7-6.4-1.7-7.1 0-12.8 5.7-12.8 12.8 0 1 .1 2 .3 3 1 5 5 9 10.1 9.9 3 .6 6.1 0 8.7-1.6v10.1l-31.5-.1zm78.8-10.8c0 5.9-4.8 10.6-10.7 10.6h-32v-10.3c0-1.5-.8-2.9-2.1-3.7-1.3-.8-3-.8-4.3 0-1.8 1.1-3.8 1.4-5.9 1-3.3-.6-6-3.1-6.8-6.4-.1-.6-.2-1.2-.1-1.8.1-4.6 3.9-8.3 8.5-8.3 1.5 0 3 .4 4.3 1.1 1.3.8 3 .8 4.3 0 1.3-.8 2.2-2.2 2.1-3.7V81.1l10.3.1c-3.5 6.1-1.4 13.9 4.7 17.4 6.1 3.5 13.9 1.4 17.5-4.7.7-1.3 1.3-2.7 1.5-4.1.6-3 0-6.1-1.6-8.7h10.2v31.7zm19.2-36c0 5.9-4.8 10.6-10.7 10.6v4.3c8.2 0 14.9-6.7 14.9-14.9h-4.2z"/><path class="st2" d="M123.7 76.8c0 11.7-9.6 21.3-21.3 21.3v4.3c14.1 0 25.6-11.4 25.6-25.5h-4.3z"/><g class="st0"><g class="st1"><path class="st2" d="M64 0C36.1 0 19.3 22.7 19.2 44.7c0 12.5 5.2 24.5 14.3 33 7 6.5 11.3 11.2 11.3 20.5v6.3c0 1.6.6 3.1 1.7 4.3-1 1.1-1.7 2.6-1.7 4.3 0 3.5 2.9 6.4 6.4 6.4h.2c1 4.9 5.3 8.5 10.5 8.5h4.3c5.1 0 9.5-3.7 10.5-8.5h.2c3.5 0 6.4-2.9 6.4-6.4 0-1.6-.6-3.1-1.7-4.3 1-1.1 1.7-2.6 1.7-4.3v-6.3c0-9.5 4.2-14 11.1-20.4 9.2-8.5 14.5-20.5 14.5-32.9C108.8 18.9 90 0 64 0zm2.1 123.7h-4.3c-2.8 0-5.2-1.8-6-4.3h16.3c-.8 2.5-3.2 4.3-6 4.3zm10.7-8.5H51.2c-1.2 0-2.1-1-2.1-2.1s1-2.1 2.1-2.1h25.6c1.2 0 2.1 1 2.1 2.1s-.9 2.1-2.1 2.1zm2.1-10.7c0 1.2-1 2.1-2.1 2.1H51.2c-1.2 0-2.1-1-2.1-2.1v-2.1H79v2.1zm12.6-29.8C84.1 81.4 79 87 78.9 98.1h-4.3V46.9h13.2c.9 2.5 3.2 4.3 6 4.3 3.5 0 6.4-2.9 6.4-6.4 0-3.5-2.9-6.4-6.4-6.4-2.8 0-5.1 1.8-6 4.3H72.5c-1.2 0-2.1 1-2.1 2.1v53.3h-4.3v-64c0-1.2-1-2.1-2.1-2.1H50.8c-.9-2.5-3.2-4.3-6-4.3-3.5 0-6.4 2.9-6.4 6.4 0 3.5 2.9 6.4 6.4 6.4 2.8 0 5.1-1.8 6-4.3h11.1v61.9h-4.3V55.5c0-1.2-1-2.1-2.1-2.1H42.3c-.9-2.5-3.2-4.3-6-4.3-3.5 0-6.4 2.9-6.4 6.4 0 3.5 2.9 6.4 6.4 6.4 2.8 0 5.1-1.8 6-4.3h11.1v40.5h-4.3c0-11-5.3-16.7-12.7-23.6-8.3-7.7-13-18.6-12.9-29.8 0-19.3 14.4-39.2 38.4-40.3v17c0 1.2 1 2.1 2.1 2.1h11.1c.9 2.5 3.2 4.3 6 4.3 3.5 0 6.4-2.9 6.4-6.4S84.6 15 81.1 15c-2.8 0-5.1 1.8-6 4.3h-8.9V4.4c22.7 1 38.4 17.3 38.4 40.5-.1 11.3-4.8 22.1-13.1 29.8zm.2-29.9c0-1.2 1-2.1 2.1-2.1s2.1 1 2.1 2.1-1 2.1-2.1 2.1-2.1-.9-2.1-2.1zM46.9 34.1c0 1.2-1 2.1-2.1 2.1s-2.1-1-2.1-2.1c0-1.2 1-2.1 2.1-2.1s2.1 1 2.1 2.1zm-8.5 21.4c0 1.2-1 2.1-2.1 2.1s-2.1-1-2.1-2.1 1-2.1 2.1-2.1 2.1.9 2.1 2.1zm40.5-34.2c0-1.2 1-2.1 2.1-2.1s2.1 1 2.1 2.1c0 1.2-1 2.1-2.1 2.1s-2.1-.9-2.1-2.1z"/></g><g class="st1"><path class="st2" d="M125.9 9.1c-3.5 0-6.4-2.9-6.4-6.4 0-1.2-1-2.1-2.1-2.1-1.2 0-2.1 1-2.1 2.1 0 3.5-2.9 6.4-6.4 6.4-1.2 0-2.1 1-2.1 2.1s1 2.1 2.1 2.1c3.5 0 6.4 2.9 6.4 6.4 0 1.2 1 2.1 2.1 2.1 1.2 0 2.1-1 2.1-2.1 0-3.5 2.9-6.4 6.4-6.4 1.2 0 2.1-1 2.1-2.1s-1-2.1-2.1-2.1zm-8.6 4.2c-.6-.8-1.3-1.5-2.1-2.1.8-.6 1.5-1.3 2.1-2.1.6.8 1.3 1.5 2.1 2.1-.7.6-1.5 1.3-2.1 2.1z"/></g><g class="st1"><path class="st2" d="M27.7 100.8C21.8 100.8 17 96 17 90.1c0-1.2-1-2.1-2.1-2.1s-2.1 1-2.1 2.1c0 5.9-4.8 10.7-10.7 10.7-1.2 0-2.1 1-2.1 2.1 0 1.2 1 2.1 2.1 2.1 5.9 0 10.7 4.8 10.7 10.7 0 1.2 1 2.1 2.1 2.1s2.1-1 2.1-2.1c0-5.9 4.8-10.7 10.7-10.7 1.2 0 2.1-1 2.1-2.1.1-1.1-.9-2.1-2.1-2.1zM14.9 108c-1.3-2.1-3-3.9-5.1-5.1 2.1-1.3 3.9-3 5.1-5.1 1.3 2.1 3 3.9 5.1 5.1-2 1.3-3.8 3.1-5.1 5.1z"/></g></g><g class="st0"><g class="st1"><path class="st2" d="M111.8 19.6c.1-.6.1-1.2.1-1.8.2-9.6-7.5-17.6-17.1-17.8-5.1 0-9.9 2.4-13.1 6.4-2.7-2.6-6.2-4-9.9-4-6.1.1-11.6 3.9-13.7 9.7H58c-1.9 0-3.8.4-5.6 1.1l-3.6.3c-11.6 1.3-20.5 4.3-26.3 8.9-1 .7-1.9 1.6-2.7 2.5-3.4 3.6-6 7.9-7.7 12.6-.7 2-1.2 4-1.7 6l-.2 1c-.4 1.5-1 2.9-1.6 4.3-.4.9-.8 1.8-1.1 2.7-.4 1-.6 2.2-.5 3.3.4 1.8 1.4 3.3 2.9 4.4.7.7 1.5 1.4 1.5 1.8-.1.3-.2.5-.3.7-2.5 4.7-5.3 9.3-8.5 13.5C1 76.7 0 78.8 0 81c.4 1.6 1.4 2.9 2.9 3.7.6.4 1.3.8 2 1.2.7.3 2.1 1.1 2.2 1.5.1.6 0 1.2-.2 1.8-.3.6-.6 1.1-.8 1.5-.7 1.3-2 3.5-.1 5.1.4.3 1 .9 1.6 1.3-.4.8-.6 1.8-.6 2.7.1.8.5 1.5 1.2 2 .4.3.9.6 1.4.9 1.1.6 1.5.9 1.6 1.4.1.7 0 1.5-.2 2.2l-.3 1.5c-.2 1.8 0 3.6.7 5.2.9 3.1 3.7 5.3 7 5.4.5 0 1.1-.1 1.6-.2 5.4-1.3 10.8-2.9 16-4.8 4.2 2.5 6.9 10.1 7.6 12.9.2 1 1.1 1.6 2.1 1.6H94c.7 0 1.3-.3 1.7-.9.4-.5.5-1.2.3-1.9-.5-1.4-1.2-2.7-2.2-3.8-.5-.7-1-1.4-1.4-2.1-.9-1.7-1.6-3.6-2.1-5.4-1.1-3.7-1.8-7.5-2.2-11.3-.6-5.5.2-11.3 2.5-16.5 1.4-2.9 3.2-5.7 5.2-8.2 1.2-1.6 2.3-3.2 3.4-4.8 2.6-4 4.2-8.5 4.6-13.2h5.9c.1 0 .3 0 .4-.1 10.3-1.1 18-9.8 17.8-20.1.3-9.8-6.6-18.2-16.1-20zM95.6 70.7c-1 1.6-2.1 3.1-3.2 4.6-2.2 2.8-4.1 5.8-5.7 9-2.6 5.9-3.6 12.5-2.8 18.9.4 4.1 1.2 8.1 2.4 12 .6 2.1 1.4 4.1 2.4 6 .4.9 1 1.7 1.6 2.5h-43c-1.3-4.4-3.5-8.5-6.5-11.9l1.3-.5c1.3-.5 2.3-.8 2.8-1 8.3-2.6 12.5-6.4 12.4-11.3 0-1.2-1-2.1-2.1-2.1-.6 0-1.1.2-1.5.7-.4.4-.6 1-.6 1.5 0 1.9-1.5 4.7-9.4 7.1-.5.2-1.6.5-3 1s-3.2 1.1-5.1 1.8c-5.4 2-10.8 3.6-16.4 4.9-1.7.3-3.3-.7-3.7-2.4-.4-1-.6-2.2-.5-3.3.1-.4.1-.8.2-1.1.4-1.4.5-2.8.2-4.2-.6-1.8-1.9-3.3-3.6-4-.1 0-.2-.1-.2-.1l.6-.9c.4-.5.5-1 .4-1.6-.1-.6-.4-1.1-.9-1.4-.4-.3-1.4-1.1-2.2-1.7.1-.1.2-.3.2-.4.3-.5.6-1.1 1-1.8.6-1.4.8-2.9.5-4.4-.5-2.5-2.8-3.6-4.5-4.5-.5-.3-1-.5-1.5-.9-.4-.3-.7-.5-1-.9.4-.9 1-1.8 1.7-2.5 3.5-4.4 6.4-9.3 8.8-14.3.4-.8.7-1.7.7-2.6-.2-2-1.2-3.8-2.9-5-.7-.6-1.4-1.3-1.5-1.8 0-.4.1-.8.3-1.2.3-.8.7-1.6 1-2.4.8-1.6 1.4-3.3 1.9-5.1l.2-1c.4-1.9.9-3.7 1.5-5.5 1.5-4.1 3.8-7.9 6.8-11.1.7-.7 1.4-1.4 2.2-2 4.7-3.7 11.8-6.2 21.1-7.6-2 2.7-3 6-3 9.3 0 1.2.1 2.4.4 3.6-4.6 2.8-7.4 7.9-7.3 13.3-.2 8.3 6.5 15.2 14.8 15.4.3 0 .6 0 .9-.1.1 0 .2 0 .3.1h15.3L60 71.4c-.5.9-.4 2 .3 2.7.7.7 1.9.8 2.7.2l21.2-14.6h15.2c-.3 3.9-1.6 7.7-3.8 11zM78.7 48c-.4-.7-1.1-1.1-1.9-1.1h-10L84 28.4l-5 13.5c-.4 1.1.1 2.2 1.2 2.7l11.4 4.9-22.3 15.3 9.3-14.6c.4-.6.4-1.5.1-2.2zm29.9 7.5H90.4l6.8-4.6c.6-.4 1-1.2.9-2-.1-.8-.6-1.4-1.3-1.8l-13.1-5.6 7.8-21.6c.3-1 0-2-.9-2.5s-2-.4-2.7.4L60.3 47.6c-.6.6-.7 1.5-.4 2.3.3.8 1.1 1.3 2 1.3h11l-2.7 4.3H52.7c-.3-.1-.5-.1-.8-.1-.3 0-.6.1-.9.1-6-.2-10.7-5.2-10.5-11.1C40.4 40 43 36 47 34.1c.1-.1.2-.1.3-.2.1-.1.2-.2.3-.2.1-.1.2-.2.2-.3.2-.2.3-.5.3-.7 0-.1.1-.3.1-.4 0-.1 0-.3-.1-.4 0-.1 0-.2-.1-.4-.5-1.2-.7-2.6-.7-3.9-.2-6 4.6-11 10.5-11.1.4 0 .9 0 1.3.1h.3c.2 0 .4-.1.6-.1l.6-.3h.1c.3-.2.5-.5.6-.8.1-.1.1-.2.2-.4 1.1-4.7 5.3-8.1 10.1-8.2 3.3 0 6.5 1.7 8.4 4.4l.3.3.3.3c.1 0 .2.1.3.1.1.1.3.1.4.1h.8c.2 0 .3-.1.4-.2.1 0 .2-.1.3-.1l.3-.3.3-.3c2.2-4 6.4-6.6 11-6.6 7.3.2 13 6.3 12.8 13.5 0 1.1-.1 2.1-.4 3.2v.6c0 .8.6 1.6 1.4 1.9.1 0 .1.1.2.1h.4c8.3.6 14.7 7.6 14.5 15.9.6 8.4-6.1 15.5-14.7 15.8z"/></g></g><g class="st0"><circle class="st3" cx="74.7" cy="110.9" r="2.1"/><circle class="st3" cx="83.2" cy="110.9" r="2.1"/><circle class="st3" cx="91.7" cy="110.9" r="2.1"/><circle class="st3" cx="70.4" cy="70.4" r="2.1"/><circle class="st3" cx="74.7" cy="46.9" r="2.1"/><circle class="st3" cx="83.2" cy="46.9" r="2.1"/><circle class="st3" cx="78.9" cy="42.7" r="2.1"/><circle class="st3" cx="83.2" cy="38.4" r="2.1"/><circle class="st3" cx="74.7" cy="55.5" r="2.1"/><circle class="st3" cx="70.4" cy="51.2" r="2.1"/><circle class="st3" cx="78.9" cy="51.2" r="2.1"/><circle class="st3" cx="70.4" cy="76.8" r="2.1"/><circle class="st3" cx="70.4" cy="83.2" r="2.1"/><circle class="st3" cx="70.4" cy="89.6" r="2.1"/><circle class="st3" cx="70.4" cy="96" r="2.1"/><circle class="st3" cx="70.4" cy="102.4" r="2.1"/><circle class="st3" cx="78.9" cy="106.7" r="2.1"/><circle class="st3" cx="87.5" cy="106.7" r="2.1"/><path class="st3" d="M51.2 23.5H40.5c-1.2 0-2.1 1-2.1 2.1 0 1.2 1 2.1 2.1 2.1h10.7c1.2 0 2.1-1 2.1-2.1 0-1.2-.9-2.1-2.1-2.1zm0 14.9H29.9c-1.2 0-2.1 1-2.1 2.1s1 2.1 2.1 2.1h21.3c1.2 0 2.1-1 2.1-2.1s-.9-2.1-2.1-2.1zm0 14.9h-32c-1.2 0-2.1 1-2.1 2.1s1 2.1 2.1 2.1h32c1.2 0 2.1-1 2.1-2.1s-.9-2.1-2.1-2.1zm0 15H10.7c-1.2 0-2.1 1-2.1 2.1 0 1.2 1 2.1 2.1 2.1h40.5c1.2 0 2.1-1 2.1-2.1 0-1.2-.9-2.1-2.1-2.1zm0 14.9H23.5c-1.2 0-2.1 1-2.1 2.1 0 1.2 1 2.1 2.1 2.1h27.7c1.2 0 2.1-1 2.1-2.1s-.9-2.1-2.1-2.1zm0 14.9H36.3c-1.2 0-2.1 1-2.1 2.1 0 1.2 1 2.1 2.1 2.1h14.9c1.2 0 2.1-1 2.1-2.1s-.9-2.1-2.1-2.1zm61.9 17.1h-10.7v-12.8c0-16.2-8.8-30.8-22.9-38.4 14-7.6 22.9-22.2 22.9-38.4V12.8h10.7c3.5 0 6.4-2.9 6.4-6.4S116.6 0 113.1 0H64c-1.2 0-2.1 1-2.1 2.1s1 2.1 2.1 2.1h49.1c1.2 0 2.1 1 2.1 2.1s-1 2.1-2.1 2.1H64c-1.2 0-2.1 1-2.1 2.1s1 2.1 2.1 2.1h34.1v12.8c0 16-9.5 30.3-24.3 36.4h-.1c-.2.1-.4.2-.6.4-.1.1-.2.3-.3.5 0 .1-.1.1-.1.2-.1.3-.2.5-.2.8 0 .3.1.6.2.8.1.2.2.4.4.6 0 0 .1.1.2.1.1.1.3.2.5.3l.1.1C88.7 71.7 98.2 86 98.2 102v12.8c0-1.2-1-2.1-2.1-2.1s-2.1 1-2.1 2.1h-4.3c0-1.2-1-2.1-2.1-2.1s-2.1 1-2.1 2.1h-4.3c0-1.2-1-2.1-2.1-2.1s-2.1 1-2.1 2.1h-4.3c0-1.2-1-2.1-2.1-2.1s-2.1 1-2.1 2.1H64c-1.2 0-2.1 1-2.1 2.1 0 1.2 1 2.1 2.1 2.1h49.1c1.2 0 2.1 1 2.1 2.1s-1 2.1-2.1 2.1H64c-1.2 0-2.1 1-2.1 2.1 0 1.2 1 2.1 2.1 2.1h49.1c3.5 0 6.4-2.9 6.4-6.4s-2.9-5.8-6.4-5.8z"/></g></svg>