<svg id="Layer_1" xmlns="http://www.w3.org/2000/svg" viewBox="0 0 399.6 151.8"><style>.st1{fill:#fff}</style><circle cx="199.8" cy="42.9" r="42.5" fill="#c4245c"/><path class="st1" d="M199.3 42.2h-.2l-16.3-6.4c-.2-.1-.3-.2-.3-.4s.1-.3.2-.4l16.4-9.2c.1-.1.3-.1.4 0 .1.1.2.2.2.4l-.1 15.5c0 .1-.1.3-.2.4.1.1 0 .1-.1.1zM184 35.3l14.8 5.8.1-14.1-14.9 8.3z"/><path class="st1" d="M183 35.8c-.1 0-.2 0-.3-.1-.1-.1-.2-.3-.1-.5l4.2-10.6c.1-.2.3-.3.5-.3l12.2 1.5c.2 0 .3.2.4.4 0 .2-.1.4-.2.5l-16.4 9.2c-.2-.1-.3-.1-.3-.1zm4.5-10.6l-3.6 9.2 14.1-7.9-10.5-1.3z"/><path class="st1" d="M183 35.8c-.1 0-.2 0-.3-.1l-7.8-6c-.1-.1-.2-.3-.2-.4 0-.2.1-.3.3-.4l12-4.7c.2-.1.4 0 .5.1.1.1.2.3.1.5l-4.2 10.6-.3.3-.1.1zm-7-6.3l6.7 5.1 3.6-9.1-10.3 4z"/><path class="st1" d="M175.1 29.8c-.1 0-.2 0-.3-.1-.1-.1-.2-.3-.1-.5l2.3-5.8c.1-.2.3-.3.5-.3l9.7 1.2c.2 0 .4.2.4.4s-.1.4-.3.5l-12 4.7c-.1-.1-.1-.1-.2-.1zm2.6-5.7l-1.8 4.5 9.4-3.6-7.6-.9z"/><path class="st1" d="M168.8 38.8h-.2c-.2-.1-.3-.3-.2-.5l2.5-8.3c0-.1.1-.1.1-.2l6.2-6.5c.1-.2.4-.2.6-.1.2.1.3.3.2.5l-2.3 5.8s0 .1-.1.1l-6.4 9c-.2.1-.3.2-.4.2zm2.9-8.5l-1.7 5.6 4.7-6.7 1.4-3.6-4.4 4.7zm27.7-3.6c-.1 0-.1 0 0 0l-12.2-1.5c-.2 0-.4-.2-.4-.5 0-.2.2-.4.4-.4l12.2-.8c.1 0 .2 0 .3.1.1.1.1.2.1.3v2.3c0 .1-.1.2-.1.3-.1.1-.2.2-.3.2zm-7.5-1.8l7 .8v-1.3l-7 .5z"/><path class="st1" d="M187.2 25.2c-.1 0-.1 0 0 0l-9.8-1.2c-.2 0-.4-.2-.4-.4s.2-.4.4-.4l10.8-1.1h.1l11.1 1.4c.2 0 .4.2.4.5s-.2.4-.4.4l-12.2.8zm-5.7-1.6l5.7.7 7.6-.5-6.6-.8-6.7.6zM173.8 45h-.2c-.2-.1-.3-.3-.3-.4l1.3-15.1c0-.2.1-.3.3-.4.1-.1.3 0 .4.1l7.8 6c.1.1.2.2.2.3 0 .1 0 .3-.1.3L174 45c0-.1-.1 0-.2 0zm1.7-14.8l-1.2 13.1 7.9-7.9-6.7-5.2z"/><path class="st1" d="M173.8 45c-.1 0-.3-.1-.3-.2l-5-6.2c-.1-.2-.1-.4 0-.5l6.4-9c.1-.2.3-.2.5-.2.2.1.3.3.3.5l-1.3 15.1c0 .2-.1.3-.3.4-.2.1-.3.1-.3.1zm-4.5-6.7l4.1 5.1 1.1-12.4-5.2 7.3z"/><path class="st1" d="M177.4 58.9c-.1 0-.3-.1-.4-.2l-8.1-11.8c0-.1-.1-.1-.1-.2l-.5-8.3c0-.2.1-.4.3-.4.2-.1.4 0 .5.1l5 6.2s.1.1.1.2l3.6 14c.1.2 0 .4-.2.5 0-.1-.1-.1-.2-.1zm-7.7-12.4l6.6 9.6-3-11.4-4.1-5 .5 6.8z"/><path class="st1" d="M177.4 58.9l-4-.3c-.2 0-.3-.1-.4-.3l-4.1-11.5c-.1-.2 0-.4.2-.5.2-.1.4 0 .6.1l8.1 11.8c.1.1.1.3 0 .5s-.2.2-.4.2zm-3.6-1.2l2.8.2-5.6-8.2 2.8 8z"/><path class="st1" d="M177.3 64.7c-.2 0-.3-.1-.4-.2l-3.8-6.1c-.1-.1-.1-.3 0-.5.1-.1.2-.2.4-.2l4 .3c.2 0 .4.2.4.5l-.1 5.8c0 .2-.1.4-.3.4h-.2zm-3-6l2.6 4.1.1-3.9-2.7-.2z"/><path class="st1" d="M188.4 66.6L178 65.2c-.1 0-.1 0-.2-.1l-.8-.5c-.1-.1-.2-.2-.2-.4l.1-5.8c0-.2.1-.3.2-.4.1-.1.3-.1.5 0l11 7.7c.2.1.2.3.2.5-.1.3-.2.4-.4.4zm-10.2-2.2l8.4 1.1-8.8-6.2-.1 4.7.5.4z"/><path class="st1" d="M191.4 74.7c-.1 0-.2 0-.3-.1l-13.4-9.4c-.2-.1-.2-.3-.2-.5.1-.2.3-.3.5-.3l10.3 1.4c.2 0 .3.1.4.3l3 8c.1.2 0 .4-.1.5 0 0-.1.1-.2.1zm-11.6-9.2l10.7 7.5-2.4-6.4-8.3-1.1z"/><path class="st1" d="M191.4 74.7c-.2 0-.3-.1-.4-.3l-3-8c-.1-.2 0-.4.1-.5.1-.1.3-.1.5 0l11 6.5c.2.1.2.3.2.5s-.2.3-.4.4l-8 1.4c.1 0 .1 0 0 0zm-2.1-7.5l2.4 6.5 6.4-1.2-8.8-5.3z"/><path class="st1" d="M199.4 73.1c-.1 0-.2 0-.2-.1l-11-6.5c-.2-.1-.2-.3-.2-.5s.2-.3.4-.4l11-1.9c.1 0 .3 0 .4.1.1.1.2.2.2.3v8.4c0 .2-.1.3-.2.4-.3.2-.4.2-.4.2zm-9.7-6.7l9.3 5.5v-7.1l-9.3 1.6z"/><path class="st1" d="M188.4 66.6c-.1 0-.2 0-.3-.1-.1-.1-.2-.2-.2-.3l-1.2-12.8c0-.2.1-.3.2-.4.1-.1.3-.1.5 0l12.2 7.8c.1.1.2.2.2.4v3.1c0 .2-.2.4-.4.4l-11 1.9zm-.7-12.3l1.1 11.4 10.1-1.8v-2.4l-11.2-7.2z"/><path class="st1" d="M188.4 66.6c-.1 0-.2 0-.3-.1l-11-7.7c-.1-.1-.2-.2-.2-.4s.1-.3.2-.4l9.9-5c.1-.1.3-.1.4 0 .1.1.2.2.2.3l1.2 12.8c0 .2-.1.3-.2.4 0 .1-.1.1-.2.1zm-10.1-8l9.6 6.7-1.1-11.2-8.5 4.5z"/><path class="st1" d="M177.4 58.9h-.2l-.3-.3-3.6-14c0-.2 0-.4.2-.5.2-.1.4-.1.5 0l13.4 8.9c.1.1.2.2.2.4s-.1.3-.2.4l-9.7 5.1h-.3zm-2.9-13.3l3.2 12.3 8.6-4.5-11.8-7.8z"/><path class="st1" d="M187.2 53.9c-.1 0-.2 0-.2-.1l-13.4-8.9c-.1-.1-.2-.2-.2-.3 0-.1 0-.3.1-.4l9.2-9.2c.1-.1.3-.2.4-.1.2 0 .3.2.3.3l4.2 18c0 .2 0 .4-.2.5-.1.1-.1.2-.2.2zm-12.7-9.4l12 7.9-3.8-16.2-8.2 8.3z"/><path class="st1" d="M187.2 53.9h-.2l-.3-.3-4.2-18c0-.2 0-.3.1-.4.1-.1.3-.1.5-.1l16.3 6.4c.2.1.3.2.3.4l.1 3.9c0 .2-.1.3-.2.4L187.4 54c-.1-.2-.2-.1-.2-.1zm-3.6-17.8l3.9 16.6 11.4-7.3-.1-3.4-15.2-5.9z"/><path class="st1" d="M199.4 61.7c-.1 0-.2 0-.2-.1L187 53.8c-.1-.1-.2-.2-.2-.4s.1-.3.2-.4l12.2-7.8c.1-.1.3-.1.5 0 .1.1.2.2.2.4v15.6c0 .2-.1.3-.2.4-.2 0-.3.1-.3.1zM188 53.4l10.9 7V46.5L188 53.4zm9.5-33.5c-.2 0-.3-.1-.4-.3l-3.1-7.5c-.1-.1 0-.3 0-.4.1-.1.2-.2.4-.2h4.3c.1 0 .3.1.3.2s.1.2.1.4l-1.2 7.5c0 .2-.2.3-.4.3zm-2.5-7.4l2.3 5.4.9-5.4H195z"/><path class="st1" d="M200.7 21.9c-.1 0-.2 0-.2-.1l-3.2-1.9c-.2-.1-.2-.3-.2-.5l1.2-7.5c0-.2.2-.4.4-.4s.4.1.4.4l2 9.4c0 .2 0 .4-.2.5 0 0-.1.1-.2.1zm-2.7-2.6l2.1 1.2-1.3-6.1-.8 4.9z"/><path class="st1" d="M199.4 24.4c-.1 0-.1 0 0 0-.2 0-.3-.1-.4-.3l-1.9-4.4c-.1-.2 0-.4.1-.5.1-.1.4-.1.5 0l3.2 1.9c.2.1.3.4.2.6l-1.3 2.5c-.1.1-.3.2-.4.2zm-1-3.8l1 2.3.7-1.3-1.7-1z"/><path class="st1" d="M199.4 42.2c-.1 0-.2 0-.2-.1-.1-.1-.2-.2-.2-.4l-.1-15.5c0-.2.1-.3.2-.4.1-.1.3-.1.4 0L216 35c.2.1.2.2.2.4s-.1.3-.3.4l-16.3 6.4h-.2zm.4-15.2l.1 14.1 14.8-5.8-14.9-8.3zm-.4-2.6c-.2 0-.4-.2-.4-.4s.1-.5.4-.5l1.4-.2-.4-1.8c-.1-.2.1-.5.3-.5.2-.1.5.1.5.3l.5 2.3c0 .1 0 .3-.1.4-.1.1-.2.2-.3.2l-1.9.2z"/><path class="st1" d="M215.8 35.8c-.1 0-.1 0-.2-.1l-16.4-9.2c-.2-.1-.3-.3-.2-.5 0-.2.2-.3.4-.4l12.2-1.5c.2 0 .4.1.5.3l4.2 10.6c.1.2 0 .4-.1.5-.2.3-.3.3-.4.3zm-15-9.3l14.1 7.9-3.6-9.2-10.5 1.3z"/><path class="st1" d="M215.8 35.8h-.1c-.1 0-.2-.1-.3-.3l-4.2-10.6c-.1-.2 0-.4.1-.5.1-.1.3-.2.5-.1l12 4.7c.2.1.3.2.3.4s0 .3-.2.4l-7.8 6h-.3zm-3.5-10.3l3.6 9.1 6.7-5.1-10.3-4z"/><path class="st1" d="M223.6 29.8h-.2l-12-4.7c-.2-.1-.3-.3-.3-.5s.2-.4.4-.4l9.7-1.2c.2 0 .4.1.5.3l2.3 5.8c.1.2 0 .4-.1.5-.1.2-.2.2-.3.2zM213.4 25l9.4 3.6-1.8-4.5-7.6.9z"/><path class="st1" d="M229.9 38.8c-.1 0-.3-.1-.4-.2l-6.4-9s0-.1-.1-.1l-2.3-5.8c-.1-.2 0-.4.2-.5.2-.1.4-.1.6.1l6.2 6.5c0 .1.1.1.1.2l2.5 8.3c.1.2 0 .4-.2.5h-.2zm-5.9-9.6l4.7 6.7-1.7-5.6-4.5-4.7 1.5 3.6zm-24.6-2.5c-.1 0-.2 0-.3-.1-.1-.1-.1-.2-.1-.3V24c0-.1.1-.2.1-.3.1-.1.2-.1.3-.1l12.2.8c.2 0 .4.2.4.4s-.2.4-.4.5l-12.2 1.4zm.4-2.3v1.3l7-.8-7-.5z"/><path class="st1" d="M211.5 25.2l-12.2-.8c-.2 0-.4-.2-.4-.4s.2-.4.4-.5l11.1-1.4h.1l10.8 1.1c.2 0 .4.2.4.4s-.2.4-.4.4l-9.8 1.2c.1 0 .1 0 0 0zm-7.6-1.4l7.6.5 5.7-.7-6.7-.7-6.6.9zm21 21.2c-.1 0-.2 0-.3-.1l-9.2-9.2c-.1-.1-.1-.2-.1-.3 0-.1.1-.2.2-.3l7.8-6c.1-.1.3-.1.4-.1.1.1.2.2.3.4l1.3 15.1c0 .2-.1.4-.3.4 0 .1 0 .1-.1.1zm-8.5-9.6l7.9 7.9-1.2-13.1-6.7 5.2z"/><path class="st1" d="M224.9 45h-.1c-.2-.1-.3-.2-.3-.4l-1.3-15.1c0-.2.1-.4.3-.5.2-.1.4 0 .5.2l6.4 9c.1.2.1.4 0 .5l-5 6.2c-.2 0-.4.1-.5.1zm-.7-14l1.1 12.4 4.1-5.1-5.2-7.3z"/><path class="st1" d="M221.3 58.9h-.2c-.2-.1-.3-.3-.2-.5l3.6-14c0-.1 0-.1.1-.2l5-6.2c.1-.1.3-.2.5-.1s.3.2.3.4l-.5 8.3c0 .1 0 .2-.1.2l-8.1 11.8c-.2.3-.3.3-.4.3zm4-14.2l-3 11.4 6.6-9.6.4-6.8-4 5z"/><path class="st1" d="M221.3 58.9c-.2 0-.3-.1-.4-.2-.1-.1-.1-.3 0-.5l8.1-11.8c.1-.2.4-.2.6-.1.2.1.3.3.2.5l-4.1 11.5c-.1.2-.2.3-.4.3l-4 .3zm6.5-9.1l-5.6 8.2 2.8-.2 2.8-8z"/><path class="st1" d="M221.4 64.7h-.1c-.2-.1-.3-.2-.3-.4l-.1-5.8c0-.2.2-.4.4-.5l4-.3c.2 0 .3.1.4.2.1.1.1.3 0 .5l-3.8 6.1c-.2.1-.3.2-.5.2zm.3-5.8l.1 3.9 2.6-4.1-2.7.2z"/><path class="st1" d="M210.3 66.6c-.2 0-.3-.1-.4-.3-.1-.2 0-.4.2-.5l11-7.7c.1-.1.3-.1.5 0 .1.1.2.2.2.4l.1 5.8c0 .1-.1.3-.2.4l-.8.5c-.1 0-.1.1-.2.1l-10.4 1.3zm10.5-7.3l-8.8 6.2 8.4-1.1.6-.4-.2-4.7z"/><path class="st1" d="M207.3 74.7c-.1 0-.2 0-.3-.1-.2-.1-.2-.3-.1-.5l3-8c.1-.2.2-.3.4-.3l10.3-1.4c.2 0 .4.1.5.3.1.2 0 .4-.2.5l-13.4 9.4s-.1.1-.2.1zm3.3-8.1l-2.4 6.4 10.7-7.5-8.3 1.1z"/><path class="st1" d="M207.3 74.7s-.1 0 0 0l-8-1.5c-.2 0-.3-.2-.4-.4s.1-.4.2-.5l11-6.5c.2-.1.4-.1.5 0 .1.1.2.3.1.5l-3 8c-.1.2-.2.4-.4.4zm-6.7-2.2l6.4 1.2 2.4-6.5-8.8 5.3z"/><path class="st1" d="M199.4 73.1c-.1 0-.2 0-.2-.1-.1-.1-.2-.2-.2-.4v-8.4c0-.1.1-.3.2-.3.1-.1.2-.1.4-.1l11 1.9c.2 0 .3.2.4.4 0 .2-.1.4-.2.5l-11 6.5h-.4zm.4-8.3v7.1l9.3-5.5-9.3-1.6z"/><path class="st1" d="M210.3 66.6l-11-1.9c-.2 0-.4-.2-.4-.4v-3.1c0-.2.1-.3.2-.4l12.2-7.8c.1-.1.3-.1.5 0 .1.1.2.3.2.4l-1.2 12.8c0 .1-.1.2-.2.3-.1.1-.2.1-.3.1zm-10.5-2.7l10.1 1.8 1.1-11.4-11.2 7.2v2.4z"/><path class="st1" d="M210.3 66.6c-.1 0-.2 0-.2-.1-.1-.1-.2-.3-.2-.4l1.2-12.8c0-.1.1-.3.2-.3.1-.1.3-.1.4 0l9.7 5.1c.1.1.2.2.2.4s-.1.3-.2.4l-11 7.7h-.1zm1.6-12.5l-1.1 11.2 9.6-6.7-8.5-4.5z"/><path class="st1" d="M221.3 58.9c-.1 0-.1 0-.2-.1l-9.7-5.1c-.1-.1-.2-.2-.2-.4s.1-.3.2-.4l13.4-8.9c.2-.1.4-.1.5 0 .1.1.2.3.2.5l-3.6 14c0 .1-.1.2-.3.3-.2.1-.3.1-.3.1zm-8.9-5.5l8.6 4.5 3.2-12.3-11.8 7.8z"/><path class="st1" d="M211.5 53.9c-.1 0-.2 0-.3-.1-.1-.1-.2-.3-.2-.5l4.2-18c0-.2.2-.3.3-.3.2 0 .3 0 .4.1l9.2 9.2c.1.1.1.2.1.4 0 .1-.1.3-.2.3l-13.4 8.9c.1-.1 0 0-.1 0zm4.5-17.6l-3.8 16.2 12-7.9-8.2-8.3z"/><path class="st1" d="M211.5 53.9c-.1 0-.2 0-.2-.1L199.1 46c-.1-.1-.2-.2-.2-.4l.1-3.9c0-.2.1-.3.3-.4l16.3-6.4c.2-.1.3 0 .5.1s.2.3.1.4l-4.2 18c0 .1-.1.3-.3.3 0 .1-.1.2-.2.2zm-11.7-8.5l11.4 7.3 3.9-16.6-15.2 5.9-.1 3.4z"/><path class="st1" d="M199.4 61.7c-.1 0-.1 0-.2-.1s-.2-.2-.2-.4V45.7c0-.2.1-.3.2-.4.1-.1.3-.1.5 0l12.2 7.8c.1.1.2.2.2.4s-.1.3-.2.4l-12.2 7.8c-.2-.1-.3 0-.3 0zm.4-15.2v13.9l10.9-7-10.9-6.9z"/><path d="M34.4 108.2c-.3-1.3-.8-2.5-1.6-3.7-.8-1.1-1.8-2.1-3-3-1.2-.8-2.6-1.5-4.2-2s-3.2-.7-5-.7c-2.5 0-4.8.4-6.9 1.2-2.1.8-3.8 2.1-5.3 3.7s-2.6 3.6-3.4 6.1c-.8 2.4-1.2 5.2-1.2 8.4s.4 6 1.2 8.5c.8 2.4 1.9 4.5 3.4 6.2 1.5 1.7 3.2 2.9 5.3 3.8 2 .9 4.3 1.3 6.8 1.3 3.8 0 6.9-.8 9.4-2.5s4-4.2 4.6-7.4h3.3c-.3 2.1-1 4-2 5.6-1 1.6-2.2 3-3.7 4.2-1.5 1.1-3.2 2-5.2 2.6-2 .6-4.1.9-6.3.9-3.1 0-5.9-.5-8.4-1.6s-4.6-2.6-6.3-4.6c-1.7-2-3.1-4.4-4-7.2-.9-2.8-1.4-6-1.4-9.5s.5-6.6 1.4-9.4c.9-2.8 2.3-5.2 4-7.1 1.8-2 3.9-3.5 6.3-4.5 2.5-1.1 5.2-1.6 8.3-1.6 2.1 0 4.1.3 6 .9 1.9.6 3.6 1.5 5.2 2.6 1.5 1.1 2.8 2.4 3.9 4 1 1.5 1.8 3.2 2.2 5.1h-3.4zm26.9 3.5c-.3-.1-.6-.1-1-.1h-1.2c-.9 0-1.8.2-2.6.6-.9.4-1.7.9-2.4 1.5-.8.6-1.5 1.3-2.2 2-.7.8-1.2 1.5-1.7 2.3v22.3H47v-31.1h3.2v4.3c.9-1.1 1.8-1.9 2.7-2.6.9-.7 1.8-1.2 2.6-1.6.8-.4 1.7-.6 2.4-.7.8-.1 1.5-.2 2.1-.2h.6c.2 0 .4 0 .6.1v3.2zm18.6 29.5c-2.2 0-4.1-.4-5.9-1.1-1.8-.7-3.3-1.8-4.6-3.2-1.3-1.4-2.3-3.1-2.9-5.2-.7-2-1-4.3-1-6.9 0-2.5.3-4.8 1-6.8s1.6-3.7 2.8-5.1c1.2-1.4 2.7-2.5 4.4-3.2 1.7-.7 3.6-1.1 5.6-1.1 2.1 0 4 .4 5.7 1.1 1.7.7 3.2 1.8 4.4 3.2 1.2 1.4 2.1 3.1 2.8 5.1.6 2 1 4.3 1 6.8v.7H68.6c.2 2.1.5 3.9 1.2 5.5.6 1.6 1.4 2.8 2.4 3.9 1 1 2.1 1.8 3.4 2.3 1.3.5 2.7.8 4.2.8 1.1 0 2.1-.1 3.2-.4 1.1-.3 2-.6 2.9-1.1.9-.5 1.6-1.1 2.2-1.9.6-.7.9-1.6 1-2.6h3.2c-.3 1.5-.8 2.8-1.6 3.9-.7 1.1-1.7 2.1-2.8 2.9-1.1.8-2.3 1.4-3.7 1.8-1.3.4-2.8.6-4.3.6zm10-18.9c-.5-3.6-1.7-6.2-3.6-8-1.9-1.8-4.2-2.6-7-2.6-1.4 0-2.6.2-3.8.6-1.2.4-2.2 1.1-3.1 2-.9.9-1.7 2-2.3 3.3-.6 1.3-1.1 2.9-1.3 4.7h21.1zm31.9 14c-1.1 1-2.2 1.8-3.2 2.4-1 .6-2.1 1.1-3.1 1.5-1 .4-2 .6-3 .7-1 .1-2 .2-3 .2-1.4 0-2.6-.2-3.8-.6-1.2-.4-2.2-1-3-1.8-.9-.8-1.5-1.7-2-2.8-.5-1.1-.7-2.3-.7-3.6 0-3.6 1.5-6.3 4.6-8.3 3-2 7.6-3 13.7-3h3.7c0-1.4-.1-2.6-.2-3.8-.2-1.1-.5-2.1-1.1-3-.6-.8-1.5-1.5-2.6-2-1.2-.5-2.7-.7-4.7-.7-2.9 0-5.1.5-6.6 1.4-1.5.9-2.3 2.3-2.6 4.1H101c.3-2.9 1.5-5.1 3.5-6.6 2-1.4 4.9-2.1 8.8-2.1 2.2 0 4 .3 5.5.8s2.7 1.3 3.7 2.3c.9 1 1.6 2.2 2.1 3.7.4 1.4.6 3 .6 4.8v20.3H122v-3.9zm0-12H117c-4.7 0-8.1.7-10.4 2-2.3 1.3-3.4 3.3-3.4 5.7 0 1.8.7 3.3 2.2 4.3 1.4 1 3.4 1.5 5.9 1.5 1.1 0 2.2-.2 3.2-.5s2-.8 2.9-1.3c.9-.5 1.7-1.1 2.5-1.8s1.4-1.3 2-1.9v-8zm23.9 16.3c-.5.1-.9.1-1.4.1h-1.4c-1.4 0-2.5-.2-3.4-.6-.8-.4-1.5-1-1.9-1.7-.4-.8-.7-1.7-.9-2.9-.1-1.2-.2-2.5-.2-4.1v-19h-4v-3.2h4v-8.1h3.2v8.1h5.1v3.2h-5.1v19.3c0 1.3.1 2.3.3 3.1.2.8.5 1.4.8 1.8.4.4.8.7 1.4.8.5.1 1.2.2 1.9.2h1.5v3zm10.5-.2H153v-31.1h3.2v31.1zm0-39H153v-5h3.2v5zm33.8 7.9l-11.8 31.1h-2.9l-11.8-31.1h3.3l10 26.7 10-26.7h3.2zm19.8 31.9c-2.2 0-4.1-.4-5.9-1.1-1.8-.7-3.3-1.8-4.6-3.2-1.3-1.4-2.3-3.1-2.9-5.2-.7-2-1-4.3-1-6.9 0-2.5.3-4.8 1-6.8s1.6-3.7 2.8-5.1c1.2-1.4 2.7-2.5 4.4-3.2 1.7-.7 3.6-1.1 5.6-1.1 2.1 0 4 .4 5.7 1.1 1.7.7 3.2 1.8 4.4 3.2 1.2 1.4 2.1 3.1 2.8 5.1.6 2 1 4.3 1 6.8v.7h-24.5c.2 2.1.5 3.9 1.2 5.5.6 1.6 1.4 2.8 2.4 3.9 1 1 2.1 1.8 3.4 2.3 1.3.5 2.7.8 4.2.8 1.1 0 2.1-.1 3.2-.4 1.1-.3 2-.6 2.9-1.1.9-.5 1.6-1.1 2.2-1.9.6-.7.9-1.6 1-2.6h3.2c-.3 1.5-.8 2.8-1.6 3.9-.7 1.1-1.7 2.1-2.8 2.9-1.1.8-2.3 1.4-3.7 1.8-1.4.4-2.9.6-4.4.6zm9.9-18.9c-.5-3.6-1.7-6.2-3.6-8-1.9-1.8-4.2-2.6-7-2.6-1.4 0-2.6.2-3.8.6-1.2.4-2.2 1.1-3.1 2-.9.9-1.7 2-2.3 3.3-.6 1.3-1.1 2.9-1.3 4.7h21.1zm80.1 18.1h-31.7v-44h30.7v3.2h-27.4v16.3H297v3.2h-25.7v18.1h28.5v3.2zm29.2 0l-9-12.8-9 12.8h-4l11-15.6-11-15.5h3.9l9 12.8 9-12.8h3.9l-11 15.5 11 15.6H329zm13.8-26.5c1-1.2 2-2.2 2.9-2.9.9-.7 1.9-1.3 2.7-1.6.9-.4 1.7-.6 2.5-.7.8-.1 1.6-.2 2.4-.2 1.9 0 3.6.4 5.1 1.2 1.5.8 2.8 1.9 3.8 3.3s1.8 3.1 2.3 5.1c.5 2 .8 4.2.8 6.6 0 2.5-.3 4.8-.9 6.9-.6 2-1.5 3.8-2.6 5.2-1.1 1.4-2.4 2.6-3.9 3.4-1.5.8-3.1 1.2-4.9 1.2-.7 0-1.5 0-2.3-.1-.8-.1-1.6-.2-2.5-.5-.9-.3-1.7-.7-2.6-1.2-.9-.5-1.8-1.2-2.8-2.1V152h-3.2v-42.5h3.2v4.4zm0 19.5c2.9 3 6.2 4.6 10 4.6 1.4 0 2.7-.3 3.9-.9 1.2-.6 2.2-1.4 3-2.5.8-1.1 1.5-2.5 1.9-4.2.5-1.7.7-3.6.7-5.8 0-4.2-.8-7.4-2.4-9.6-1.6-2.2-3.9-3.3-6.8-3.3-3.9 0-7.2 2.1-10.2 6.2v15.5zm42.9-24.9c2.1 0 4 .4 5.7 1.1 1.7.7 3.2 1.8 4.4 3.2 1.2 1.4 2.1 3.1 2.8 5.1.6 2 1 4.3 1 6.8 0 2.6-.3 4.9-1 6.9s-1.6 3.8-2.8 5.2c-1.2 1.4-2.7 2.5-4.4 3.2-1.7.7-3.6 1.1-5.7 1.1s-4-.4-5.7-1.1c-1.7-.7-3.1-1.8-4.4-3.2-1.2-1.4-2.1-3.1-2.8-5.2-.7-2-1-4.4-1-7 0-2.6.3-4.9 1-6.9s1.6-3.7 2.8-5.1c1.2-1.4 2.7-2.5 4.4-3.2 1.7-.6 3.6-.9 5.7-.9zm0 29.4c1.6 0 3-.3 4.3-.8 1.3-.5 2.4-1.4 3.4-2.5.9-1.1 1.7-2.5 2.2-4.1.5-1.6.8-3.6.8-5.8 0-2.2-.3-4.1-.8-5.7-.5-1.6-1.3-3-2.2-4.1-.9-1.1-2.1-1.9-3.4-2.4-1.3-.5-2.7-.8-4.3-.8-1.6 0-3.1.3-4.4.8-1.3.5-2.4 1.4-3.4 2.4-.9 1.1-1.7 2.4-2.2 4.1-.5 1.6-.8 3.6-.8 5.7 0 2.2.3 4.1.8 5.8.5 1.6 1.2 3 2.2 4.1.9 1.1 2.1 1.9 3.4 2.5 1.4.6 2.8.8 4.4.8z" fill="#191a1a"/></svg>