<svg id="Layer_1" xmlns="http://www.w3.org/2000/svg" viewBox="0 0 506.6 85.1"><style>.st0{display:none}.st1{display:inline}.st2{fill:#c4245c}.st3,.st4{fill:#fff}.st4{display:inline}.st5{fill:#191a1a}</style><g class="st0"><g class="st1"><circle class="st2" cx="253.5" cy="9.4" r="42.5"/><path class="st3" d="M253 8.7h-.2l-16.3-6.4c-.2-.1-.3-.2-.3-.4s.1-.3.2-.4l16.4-9.2c.1-.1.3-.1.4 0 .1.1.2.2.2.4l-.1 15.5c0 .1-.1.3-.2.4.1 0 0 .1-.1.1zm-15.3-6.9l14.8 5.8.1-14.1-14.9 8.3z"/><path class="st3" d="M236.7 2.3c-.1 0-.2 0-.3-.1-.1-.1-.2-.3-.1-.5l4.2-10.6c.1-.2.3-.3.5-.3l12.2 1.5c.2 0 .3.2.4.4 0 .2-.1.4-.2.5L237 2.4c-.1-.1-.2-.1-.3-.1zm4.5-10.6L237.6.9 251.7-7l-10.5-1.3z"/><path class="st3" d="M236.7 2.3c-.1 0-.2 0-.3-.1l-7.8-6c-.1-.1-.2-.3-.2-.4 0-.2.1-.3.3-.4l12-4.7c.2-.1.4 0 .5.1.1.1.2.3.1.5L237.1 2l-.3.3h-.1zM229.8-4l6.7 5.1 3.6-9.1-10.3 4z"/><path class="st3" d="M228.9-3.7c-.1 0-.2 0-.3-.1-.1-.1-.2-.3-.1-.5l2.3-5.8c.1-.2.3-.3.5-.3l9.7 1.2c.2 0 .4.2.4.4s-.1.4-.3.5l-12 4.7c-.1-.1-.2-.1-.2-.1zm2.6-5.8L229.7-5l9.4-3.6-7.6-.9z"/><path class="st3" d="M222.5 5.3h-.2c-.2-.1-.3-.3-.2-.5l2.5-8.3c0-.1.1-.1.1-.2l6.2-6.5c.1-.2.4-.2.6-.1.2.1.3.3.2.5L229.3-4s0 .1-.1.1l-6.4 9c0 .1-.1.2-.3.2zm2.9-8.6l-1.7 5.6 4.7-6.7 1.4-3.6-4.4 4.7zm27.7-3.6l-12.2-1.5c-.2 0-.4-.2-.4-.5 0-.2.2-.4.4-.4l12.2-.8c.1 0 .2 0 .3.1.1.1.1.2.1.3v2.3c0 .1-.1.2-.1.3-.1.2-.2.2-.3.2zm-7.4-1.8l7 .8v-1.3l-7 .5z"/><path class="st3" d="M240.9-8.3l-9.8-1.2c-.2 0-.4-.2-.4-.4s.2-.4.4-.4l10.8-1.1h.1l11.1 1.4c.2 0 .4.2.4.5 0 .2-.2.4-.4.4l-12.2.8zm-5.6-1.6l5.7.7 7.6-.5-6.6-.8-6.7.6zm-7.8 21.4h-.2c-.2-.1-.3-.3-.3-.4L228.3-4c0-.2.1-.3.3-.4.1-.1.3 0 .4.1l7.8 6c.1.1.2.2.2.3 0 .1 0 .3-.1.3l-9.2 9.2c.1-.1 0 0-.2 0zm1.7-14.8L228 9.8l7.9-7.9-6.7-5.2z"/><path class="st3" d="M227.5 11.5c-.1 0-.3-.1-.3-.2l-5-6.2c-.1-.2-.1-.4 0-.5l6.4-9c.1-.2.3-.2.5-.2.2.1.3.3.3.5L228 11.1c0 .2-.1.3-.3.4h-.2zm-4.4-6.7l4.1 5.1 1.1-12.4-5.2 7.3z"/><path class="st3" d="M231.2 25.4c-.1 0-.3-.1-.4-.2l-8.1-11.8c0-.1-.1-.1-.1-.2l-.5-8.3c0-.2.1-.4.3-.4.2-.1.4 0 .5.1l5 6.2s.1.1.1.2l3.6 14c.1.2 0 .4-.2.5-.1-.1-.1-.1-.2-.1zM223.5 13l6.6 9.6-3-11.4-4.1-5 .5 6.8z"/><path class="st3" d="M231.2 25.4l-4-.3c-.2 0-.3-.1-.4-.3l-4.1-11.5c-.1-.2 0-.4.2-.5.2-.1.4 0 .6.1l8.1 11.8c.1.1.1.3 0 .5-.1.1-.3.2-.4.2zm-3.7-1.2l2.8.2-5.6-8.2 2.8 8z"/><path class="st3" d="M231 31.2c-.2 0-.3-.1-.4-.2l-3.8-6.1c-.1-.1-.1-.3 0-.5.1-.1.2-.2.4-.2l4 .3c.2 0 .4.2.4.5l-.1 5.8c0 .2-.1.4-.3.4h-.2zm-2.9-6.1l2.6 4.1.1-3.9-2.7-.2z"/><path class="st3" d="M242.1 33.1l-10.4-1.4c-.1 0-.1 0-.2-.1l-.8-.5c-.1-.1-.2-.2-.2-.4l.1-5.8c0-.2.1-.3.2-.4.1-.1.3-.1.5 0l11 7.7c.2.1.2.3.2.5 0 .3-.2.4-.4.4zM232 30.8l8.4 1.1-8.8-6.2-.1 4.7.5.4z"/><path class="st3" d="M245.2 41.1c-.1 0-.2 0-.3-.1l-13.4-9.4c-.2-.1-.2-.3-.2-.5.1-.2.3-.3.5-.3l10.3 1.4c.2 0 .3.1.4.3l3 8c.1.2 0 .4-.1.5 0 .1-.1.1-.2.1zm-11.7-9.2l10.7 7.5-2.4-6.4-8.3-1.1z"/><path class="st3" d="M245.2 41.1c-.2 0-.3-.1-.4-.3l-3-8c-.1-.2 0-.4.1-.5.1-.1.3-.1.5 0l11 6.5c.2.1.2.3.2.5s-.2.3-.4.4l-8 1.4zm-2.2-7.4l2.4 6.5 6.4-1.2-8.8-5.3z"/><path class="st3" d="M253.1 39.6c-.1 0-.2 0-.2-.1l-11-6.5c-.2-.1-.2-.3-.2-.5s.2-.3.4-.4l11-1.9c.1 0 .3 0 .4.1.1.1.2.2.2.3V39c0 .2-.1.3-.2.4-.2.2-.3.2-.4.2zm-9.7-6.7l9.3 5.5v-7.1l-9.3 1.6z"/><path class="st3" d="M242.1 33.1c-.1 0-.2 0-.3-.1-.1-.1-.2-.2-.2-.3l-1.2-12.8c0-.2.1-.3.2-.4.1-.1.3-.1.5 0l12.2 7.8c.1.1.2.2.2.4v3.1c0 .2-.2.4-.4.4l-11 1.9c.1 0 .1 0 0 0zm-.7-12.4l1.1 11.4 10.1-1.8v-2.4l-11.2-7.2z"/><path class="st3" d="M242.1 33.1c-.1 0-.2 0-.3-.1l-11-7.7c-.1-.1-.2-.2-.2-.4s.1-.3.2-.4l9.7-5.1c.1-.1.3-.1.4 0 .1.1.2.2.2.3l1.2 12.8c0 .2-.1.3-.2.4.2.2.1.2 0 .2zM232 25l9.6 6.7-1.1-11.2L232 25z"/><path class="st3" d="M231.2 25.4h-.2l-.3-.3-3.6-14c0-.2 0-.4.2-.5.2-.1.4-.1.5 0l13.4 8.9c.1.1.2.2.2.4s-.1.3-.2.4l-9.7 5.1h-.3zM228.3 12l3.2 12.3 8.6-4.5-11.8-7.8z"/><path class="st3" d="M240.9 20.3c-.1 0-.2 0-.2-.1l-13.4-8.9c-.1-.1-.2-.2-.2-.3 0-.1 0-.3.1-.4l9.2-9.2c.1-.1.3-.2.4-.1.2 0 .3.2.3.3l4.2 18c0 .2 0 .4-.2.5 0 .2-.1.2-.2.2zm-12.7-9.4l12 7.9-3.8-16.2-8.2 8.3z"/><path class="st3" d="M240.9 20.3h-.2l-.3-.3-4.2-18c0-.2 0-.3.1-.4.1-.1.3-.1.5-.1l16.3 6.4c.2.1.3.2.3.4l.1 3.9c0 .2-.1.3-.2.4l-12.2 7.8c0-.1-.1-.1-.2-.1zm-3.6-17.7l3.9 16.6 11.4-7.3-.1-3.4-15.2-5.9z"/><path class="st3" d="M253.1 28.1c-.1 0-.2 0-.2-.1l-12.2-7.8c-.1-.1-.2-.2-.2-.4s.1-.3.2-.4l12.2-7.8c.1-.1.3-.1.5 0 .1.1.2.2.2.4v15.6c0 .2-.1.3-.2.4-.2.1-.2.1-.3.1zm-11.4-8.2l10.9 7v-14l-10.9 7z"/><g class="st0"><path class="st4" d="M254.7-11.5c-.1 0-.2 0-.3-.1-.2-.1-.2-.3-.2-.5l5.2-19.2c0-.1.1-.2.2-.3l12.2-6.1c.1 0 .2-.1.3 0l9.1 1.2h.1l9.3 3.5c.2.1.3.2.3.4s-.1.3-.2.4l-11.8 7.8h-.1l-13.3 5.6-10.5 7.2c-.1.1-.2.1-.3.1zm5.6-19.4L255.5-13l9.6-6.6h.1l13.3-5.6 11.1-7.3-8.4-3.2-8.9-1.2-12 6z"/><path class="st4" d="M254.7-11.5c-.1 0-.1 0-.2-.1l-.5-.3c-.1-.1-.2-.2-.2-.3 0-.1 0-.3.1-.4l12.3-15c.1-.2.3-.2.5-.1s.3.3.3.5l-1.2 8c0 .1-.1.2-.2.3L255-11.6c-.1.1-.2.1-.3.1zm11.2-14.2L255.5-13l9.5-6.4.9-6.3z"/><path class="st4" d="M254.4-11.7c-.1 0-.1 0-.2-.1-.2-.1-.3-.3-.2-.5l5.5-19.1c0-.1.1-.2.3-.3.1-.1.3 0 .4 0l6.6 4c.1.1.2.2.2.3 0 .1 0 .3-.1.4l-12.1 15.1c-.1.2-.2.2-.4.2zm5.8-18.8l-4.7 16.4L265.9-27l-5.7-3.5z"/><path class="st4" d="M265.4-18.8c-.1 0-.2 0-.3-.1-.1-.1-.2-.3-.2-.4l1.2-8c0-.1.1-.2.2-.3.1-.1.2-.1.3-.1l12.1 2.4c.2 0 .3.2.4.4 0 .2-.1.4-.3.5l-13.3 5.6h-.1zm1.5-7.8l-1 6.7 11.2-4.7-10.2-2z"/><path class="st4" d="M266.5-26.7c-.1 0-.2 0-.2-.1l-6.6-4c-.1-.1-.2-.2-.2-.4s.1-.3.2-.4l12.2-6.1c.2-.1.4-.1.5.1.1.1.2.4.1.5L266.9-27c-.1.1-.2.2-.3.2 0 .1 0 .1-.1.1zm-5.6-4.4l5.5 3.3 4.7-8.4-10.2 5.1z"/><path class="st4" d="M266.5-26.7c-.1 0-.3-.1-.3-.2-.1-.1-.1-.3 0-.5l5.6-10.1c.1-.2.3-.2.4-.2l9.1 1.2c.1 0 .2.1.3.2.1.1.1.2 0 .4L280-31c0 .1-.2.2-.3.3l-13.1 4h-.1zm5.9-10.1l-4.9 8.9 11.8-3.6 1.3-4.2-8.2-1.1z"/><path class="st4" d="M279.6-30.7c-.1 0-.3-.1-.3-.2-.1-.1-.1-.3-.1-.4l1.6-4.9c0-.1.1-.2.2-.3.1-.1.2-.1.4 0l9.3 3.5c.2.1.3.3.3.5s-.2.4-.4.4l-11 1.4c.1 0 0 0 0 0zm1.9-4.8l-1.2 3.8 8.4-1.1-7.2-2.7z"/><path class="st4" d="M285.4-29h-.1l-5.8-1.7c-.2-.1-.3-.3-.3-.5s.2-.4.4-.4l10.9-1.4c.2 0 .4.1.5.3.1.2 0 .4-.2.5l-5.1 3.1c-.2 0-.2.1-.3.1zm-3.6-2l3.5 1 3.1-1.9-6.6.9z"/><path class="st4" d="M278.7-24.4c-.1 0-.1 0 0 0l-12.2-2.4c-.2 0-.3-.2-.4-.4 0-.2.1-.4.3-.4l13.1-4h.3l5.8 1.7c.2 0 .3.2.3.4s0 .3-.2.4l-6.7 4.7h-.3zm-10.3-2.9l10.2 2 5.8-4-4.7-1.4-11.3 3.4z"/></g><path class="st3" d="M251.2-13.6c-.2 0-.3-.1-.4-.3l-3.1-7.5c-.1-.1 0-.3 0-.4.1-.1.2-.2.4-.2h4.3c.1 0 .3.1.3.2.1.1.1.2.1.4l-1.2 7.5c.1.1-.1.3-.4.3.1 0 .1 0 0 0zm-2.4-7.5l2.3 5.4.9-5.4h-3.2z"/><path class="st3" d="M254.4-11.7c-.1 0-.2 0-.2-.1l-3.2-1.9c-.2-.1-.2-.3-.2-.5l1.2-7.5c0-.2.2-.4.4-.4s.4.1.4.4l2 9.4c0 .2 0 .4-.2.5 0 .1-.1.1-.2.1zm-2.7-2.6l2.1 1.2-1.3-6.1-.8 4.9z"/><path class="st3" d="M253.1-9.2c-.2 0-.3-.1-.4-.3l-1.9-4.4c-.1-.2 0-.4.1-.5.1-.1.4-.1.5 0l3.2 1.9c.2.1.3.4.2.6l-1.3 2.5c-.1.2-.2.2-.4.2zm-.9-3.8l1 2.3.7-1.3-1.7-1z"/><path class="st3" d="M253.2 8.7c-.1 0-.2 0-.2-.1-.1-.1-.2-.2-.2-.4l-.1-15.5c0-.2.1-.3.2-.4.1-.1.3-.1.4 0l16.4 9.2c.2.1.2.2.2.4s-.1.3-.3.4l-16.3 6.4c0-.1-.1 0-.1 0zm.4-15.2l.1 14.1 14.8-5.8-14.9-8.3zm-.5-2.7c-.2 0-.4-.2-.4-.4s.1-.5.4-.5l1.4-.2-.5-1.7c-.1-.2.1-.5.3-.5.2-.1.5.1.5.3l.5 2.3c0 .1 0 .3-.1.4-.1.1-.2.2-.3.2l-1.8.1z"/><path class="st3" d="M269.5 2.3c-.1 0-.1 0-.2-.1L252.9-7c-.2-.1-.3-.3-.2-.5 0-.2.2-.3.4-.4l12.2-1.5c.2 0 .4.1.5.3L270 1.5c.1.2 0 .4-.1.5-.2.3-.3.3-.4.3zm-15-9.3L268.6.9 265-8.3 254.5-7z"/><path class="st3" d="M269.5 2.3h-.1c-.1 0-.2-.1-.3-.3l-4.2-10.6c-.1-.2 0-.4.1-.5.1-.1.3-.2.5-.1l12 4.7c.2.1.3.2.3.4s0 .3-.2.4l-7.8 6h-.3zM266.1-8l3.6 9.1 6.7-5.1-10.3-4z"/><path class="st3" d="M277.3-3.7h-.2l-12-4.7c-.2-.1-.3-.3-.3-.5s.2-.4.4-.4l9.7-1.2c.2 0 .4.1.5.3l2.3 5.8c.1.2 0 .4-.1.5 0 .2-.2.2-.3.2zm-10.2-4.9l9.4 3.6-1.8-4.5-7.6.9z"/><path class="st3" d="M283.7 5.3c-.1 0-.3-.1-.4-.2l-6.4-9s0-.1-.1-.1l-2.3-5.8c-.1-.2 0-.4.2-.5.2-.1.4-.1.6.1l6.2 6.5c0 .1.1.1.1.2l2.5 8.3c.1.2 0 .4-.2.5h-.2zm-6-9.6l4.7 6.7-1.7-5.6-4.4-4.8 1.4 3.7zm-24.6-2.6c-.1 0-.2 0-.3-.1-.1-.1-.1-.2-.1-.3v-2.3c0-.1.1-.2.1-.3.1-.1.2-.1.3-.1l12.2.8c.2 0 .4.2.4.4s-.2.4-.4.5l-12.2 1.4zm.4-2.2v1.3l7-.8-7-.5z"/><path class="st3" d="M265.3-8.3l-12.2-.8c-.2 0-.4-.2-.4-.4s.2-.4.4-.5l11.1-1.4h.1l10.8 1.1c.2 0 .4.2.4.4s-.2.4-.4.4l-9.8 1.2zm-7.6-1.4l7.6.5 5.7-.7-6.7-.7-6.6.9zm21 21.2c-.1 0-.2 0-.3-.1l-9.2-9.2c-.1-.1-.1-.2-.1-.3 0-.1.1-.2.2-.3l7.8-6c.1-.1.3-.1.4-.1.1.1.2.2.3.4l1.3 15.1c0 .2-.1.4-.3.4l-.1.1zm-8.5-9.6l7.9 7.9L277-3.3l-6.8 5.2z"/><path class="st3" d="M278.7 11.5h-.1c-.2-.1-.3-.2-.3-.4L277-4c0-.2.1-.4.3-.5.2-.1.4 0 .5.2l6.4 9c.1.2.1.4 0 .5l-5 6.2c-.3 0-.4.1-.5.1zm-.8-14L279 9.9l4.1-5.1-5.2-7.3z"/><path class="st3" d="M275 25.4h-.2c-.2-.1-.3-.3-.2-.5l3.6-14c0-.1 0-.1.1-.2l5-6.2c.1-.1.3-.2.5-.1s.3.2.3.4l-.5 8.3c0 .1 0 .2-.1.2l-8.1 11.8c-.1.2-.2.3-.4.3zm4.1-14.2l-3 11.4 6.6-9.6.4-6.8-4 5z"/><path class="st3" d="M275 25.4c-.2 0-.3-.1-.4-.2-.1-.1-.1-.3 0-.5l8.1-11.8c.1-.2.4-.2.6-.1.2.1.3.3.2.5l-4.1 11.5c-.1.2-.2.3-.4.3l-4 .3zm6.6-9.2l-5.6 8.2 2.8-.2 2.8-8z"/><path class="st3" d="M275.2 31.2h-.1c-.2-.1-.3-.2-.3-.4l-.1-5.8c0-.2.2-.4.4-.5l4-.3c.2 0 .3.1.4.2.1.1.1.3 0 .5l-3.8 6.1c-.2.1-.4.2-.5.2zm.3-5.8l.1 3.9 2.6-4.1-2.7.2z"/><path class="st3" d="M264.1 33.1c-.2 0-.3-.1-.4-.3-.1-.2 0-.4.2-.5l11-7.7c.1-.1.3-.1.5 0 .1.1.2.2.2.4l.1 5.8c0 .1-.1.3-.2.4l-.8.5c-.1 0-.1.1-.2.1l-10.4 1.3zm10.5-7.3l-8.8 6.2 8.4-1.1.5-.3-.1-4.8z"/><path class="st3" d="M261 41.1c-.1 0-.2 0-.3-.1-.2-.1-.2-.3-.1-.5l3-8c.1-.2.2-.3.4-.3l10.3-1.4c.2 0 .4.1.5.3.1.2 0 .4-.2.5L261.3 41c-.1.1-.2.1-.3.1zm3.4-8l-2.4 6.4 10.7-7.5-8.3 1.1z"/><path class="st3" d="M261 41.1l-8-1.5c-.2 0-.3-.2-.4-.4s.1-.4.2-.5l11-6.5c.2-.1.4-.1.5 0 .1.1.2.3.1.5l-3 8c0 .3-.2.4-.4.4zm-6.7-2.2l6.4 1.2 2.4-6.5-8.8 5.3z"/><path class="st3" d="M253.1 39.6c-.1 0-.2 0-.2-.1-.1-.1-.2-.2-.2-.4v-8.4c0-.1.1-.3.2-.3.1-.1.2-.1.4-.1l11 1.9c.2 0 .3.2.4.4 0 .2-.1.4-.2.5l-11 6.5h-.4zm.4-8.3v7.1l9.3-5.5-9.3-1.6z"/><path class="st3" d="M264.1 33.1c-.1 0-.1 0 0 0l-11-1.9c-.2 0-.4-.2-.4-.4v-3.1c0-.2.1-.3.2-.4l12.2-7.8c.1-.1.3-.1.5 0 .1.1.2.3.2.4l-1.2 12.8c0 .1-.1.2-.2.3-.1.1-.2.1-.3.1zm-10.6-2.7l10.1 1.8 1.1-11.4-11.2 7.2v2.4z"/><path class="st3" d="M264.1 33.1c-.1 0-.2 0-.2-.1-.1-.1-.2-.3-.2-.4l1.2-12.8c0-.1.1-.3.2-.3.1-.1.3-.1.4 0l9.7 5.1c.1.1.2.2.2.4s-.1.3-.2.4l-11 7.7h-.1zm1.6-12.5l-1.1 11.2 9.6-6.7-8.5-4.5z"/><path class="st3" d="M275 25.4c-.1 0-.1 0-.2-.1l-9.7-5.1c-.1-.1-.2-.2-.2-.4s.1-.3.2-.4l13.4-8.9c.2-.1.4-.1.5 0 .1.1.2.3.2.5l-3.6 14c0 .1-.1.2-.3.3-.2.1-.2.1-.3.1zm-8.8-5.6l8.6 4.5L278 12l-11.8 7.8z"/><path class="st3" d="M265.3 20.3c-.1 0-.2 0-.3-.1-.1-.1-.2-.3-.2-.5l4.2-18c0-.2.2-.3.3-.3.2 0 .3 0 .4.1l9.2 9.2c.1.1.1.2.1.4 0 .1-.1.3-.2.3l-13.4 8.9h-.1zm4.5-17.6L266 18.9l12-7.9-8.2-8.3z"/><path class="st3" d="M265.3 20.3c-.1 0-.2 0-.2-.1l-12.2-7.8c-.1-.1-.2-.2-.2-.4l.1-3.9c0-.2.1-.3.3-.4l16.3-6.4c.2-.1.3 0 .5.1.1.1.2.3.1.4l-4.2 18c0 .1-.1.3-.3.3-.1.2-.2.2-.2.2zm-11.7-8.4l11.4 7.3 3.9-16.6-15.3 5.9v3.4z"/><path class="st3" d="M253.1 28.1c-.1 0-.1 0-.2-.1s-.2-.2-.2-.4V12.1c0-.2.1-.3.2-.4.1-.1.3-.1.5 0l12.2 7.8c.1.1.2.2.2.4s-.1.3-.2.4l-12.2 7.8h-.3zm.4-15.2v13.9l10.9-7-10.9-6.9z"/></g><g class="st1"><path class="st5" d="M88.2 74.6c-.3-1.3-.8-2.5-1.6-3.7-.8-1.1-1.8-2.1-3-3-1.2-.8-2.6-1.5-4.2-2s-3.2-.7-5-.7c-2.5 0-4.8.4-6.9 1.2-2.1.8-3.8 2.1-5.3 3.7s-2.6 3.6-3.4 6.1c-.8 2.4-1.2 5.2-1.2 8.4s.4 6 1.2 8.5c.8 2.4 1.9 4.5 3.4 6.2 1.5 1.7 3.2 2.9 5.3 3.8 2 .9 4.3 1.3 6.8 1.3 3.8 0 6.9-.8 9.4-2.5s4-4.2 4.6-7.4h3.3c-.3 2.1-1 4-2 5.6-1 1.6-2.2 3-3.7 4.2-1.5 1.1-3.2 2-5.2 2.6-2 .6-4.1.9-6.3.9-3.1 0-5.9-.5-8.4-1.6s-4.6-2.6-6.3-4.6c-1.7-2-3.1-4.4-4-7.2-.9-2.8-1.4-6-1.4-9.5s.5-6.6 1.4-9.4c.9-2.8 2.3-5.2 4-7.1 1.8-2 3.9-3.5 6.3-4.5 2.5-1.1 5.2-1.6 8.3-1.6 2.1 0 4.1.3 6 .9 1.9.6 3.6 1.5 5.2 2.6 1.5 1.1 2.8 2.4 3.9 4 1 1.5 1.8 3.2 2.2 5.1h-3.4zm26.8 3.6c-.3-.1-.6-.1-1-.1h-1.2c-.9 0-1.8.2-2.6.6-.9.4-1.7.9-2.4 1.5-.8.6-1.5 1.3-2.2 2-.7.8-1.2 1.5-1.7 2.3v22.3h-3.2V75.7h3.2V80c.9-1.1 1.8-1.9 2.7-2.6.9-.7 1.8-1.2 2.6-1.6.8-.4 1.7-.6 2.4-.7.8-.1 1.5-.2 2.1-.2h.6c.2 0 .4 0 .6.1v3.2zm18.6 29.4c-2.2 0-4.1-.4-5.9-1.1-1.8-.7-3.3-1.8-4.6-3.2-1.3-1.4-2.3-3.1-2.9-5.2-.7-2-1-4.3-1-6.9 0-2.5.3-4.8 1-6.8s1.6-3.7 2.8-5.1c1.2-1.4 2.7-2.5 4.4-3.2 1.7-.7 3.6-1.1 5.6-1.1 2.1 0 4 .4 5.7 1.1 1.7.7 3.2 1.8 4.4 3.2 1.2 1.4 2.1 3.1 2.8 5.1.6 2 1 4.3 1 6.8v.8h-24.5c.2 2.1.5 3.9 1.2 5.5.6 1.6 1.4 2.8 2.4 3.9 1 1 2.1 1.8 3.4 2.3 1.3.5 2.7.8 4.2.8 1.1 0 2.1-.1 3.2-.4 1.1-.3 2-.6 2.9-1.1.9-.5 1.6-1.1 2.2-1.9.6-.7.9-1.6 1-2.6h3.2c-.3 1.5-.8 2.8-1.6 3.9-.7 1.1-1.7 2.1-2.8 2.9-1.1.8-2.3 1.4-3.7 1.8-1.3.3-2.8.5-4.4.5zm10-18.8c-.5-3.6-1.7-6.2-3.6-8-1.9-1.8-4.2-2.6-7-2.6-1.4 0-2.6.2-3.8.6-1.2.4-2.2 1.1-3.1 2-.9.9-1.7 2-2.3 3.3-.6 1.3-1.1 2.9-1.3 4.7h21.1zm32 14c-1.1 1-2.2 1.8-3.2 2.4-1 .6-2.1 1.1-3.1 1.5-1 .4-2 .6-3 .7-1 .1-2 .2-3 .2-1.4 0-2.6-.2-3.8-.6-1.2-.4-2.2-1-3-1.8-.9-.8-1.5-1.7-2-2.8-.5-1.1-.7-2.3-.7-3.6 0-3.6 1.5-6.3 4.6-8.3 3-2 7.6-3 13.7-3h3.7c0-1.4-.1-2.6-.2-3.8-.2-1.1-.5-2.1-1.1-3-.6-.8-1.5-1.5-2.6-2-1.2-.5-2.7-.7-4.7-.7-2.9 0-5.1.5-6.6 1.4-1.5.9-2.3 2.3-2.6 4.1h-3.2c.3-2.9 1.5-5.1 3.5-6.6 2-1.4 4.9-2.1 8.8-2.1 2.2 0 4 .3 5.5.8s2.7 1.3 3.7 2.3c.9 1 1.6 2.2 2.1 3.7.4 1.4.6 3 .6 4.8v20.3h-3.2v-3.9zm0-12h-4.9c-4.7 0-8.1.7-10.4 2-2.3 1.3-3.4 3.3-3.4 5.7 0 1.8.7 3.3 2.2 4.3 1.4 1 3.4 1.5 5.9 1.5 1.1 0 2.2-.2 3.2-.5s2-.8 2.9-1.3c.9-.5 1.7-1.1 2.5-1.8s1.4-1.3 2-1.9v-8zm23.9 16.3c-.5.1-.9.1-1.4.1h-1.4c-1.4 0-2.5-.2-3.4-.6-.8-.4-1.5-1-1.9-1.7-.4-.8-.7-1.7-.9-2.9-.1-1.2-.2-2.5-.2-4.1v-19h-4v-3.2h4v-8.1h3.2v8.1h5.1v3.2h-5.1v19.3c0 1.3.1 2.3.3 3.1.2.8.5 1.4.8 1.8.4.4.8.7 1.4.8.5.1 1.2.2 1.9.2h1.5v3zm10.4-.3h-3.2V75.7h3.2v31.1zm.1-38.9h-3.2v-5h3.2v5zm33.8 7.8L232 106.8h-2.9l-11.8-31.1h3.3l10 26.7 10-26.7h3.2zm19.7 31.9c-2.2 0-4.1-.4-5.9-1.1-1.8-.7-3.3-1.8-4.6-3.2-1.3-1.4-2.3-3.1-2.9-5.2-.7-2-1-4.3-1-6.9 0-2.5.3-4.8 1-6.8s1.6-3.7 2.8-5.1c1.2-1.4 2.7-2.5 4.4-3.2 1.7-.7 3.6-1.1 5.6-1.1 2.1 0 4 .4 5.7 1.1 1.7.7 3.2 1.8 4.4 3.2 1.2 1.4 2.1 3.1 2.8 5.1.6 2 1 4.3 1 6.8v.8h-24.5c.2 2.1.5 3.9 1.2 5.5.6 1.6 1.4 2.8 2.4 3.9 1 1 2.1 1.8 3.4 2.3 1.3.5 2.7.8 4.2.8 1.1 0 2.1-.1 3.2-.4 1.1-.3 2-.6 2.9-1.1.9-.5 1.6-1.1 2.2-1.9.6-.7.9-1.6 1-2.6h3.2c-.3 1.5-.8 2.8-1.6 3.9-.7 1.1-1.7 2.1-2.8 2.9-1.1.8-2.3 1.4-3.7 1.8-1.3.3-2.8.5-4.4.5zm10-18.8c-.5-3.6-1.7-6.2-3.6-8-1.9-1.8-4.2-2.6-7-2.6-1.4 0-2.6.2-3.8.6-1.2.4-2.2 1.1-3.1 2-.9.9-1.7 2-2.3 3.3-.6 1.3-1.1 2.9-1.3 4.7h21.1zm80.1 18h-31.7V62.9h30.7v3.2H325v16.3h25.7v3.2H325v18.1h28.5v3.1zm29.1 0l-9-12.8-9 12.8h-3.9l11-15.6-11-15.5h3.9l9 12.8 9-12.8h3.9l-11 15.5 11 15.6h-3.9zm13.8-26.5c1-1.2 2-2.2 2.9-2.9.9-.7 1.9-1.3 2.7-1.6.9-.4 1.7-.6 2.5-.7.8-.1 1.6-.2 2.4-.2 1.9 0 3.6.4 5.1 1.2 1.5.8 2.8 1.9 3.8 3.3s1.8 3.1 2.3 5.1c.5 2 .8 4.2.8 6.6 0 2.5-.3 4.8-.9 6.9-.6 2-1.5 3.8-2.6 5.2-1.1 1.4-2.4 2.6-3.9 3.4-1.5.8-3.1 1.2-4.9 1.2-.7 0-1.5 0-2.3-.1-.8-.1-1.6-.2-2.5-.5-.9-.3-1.7-.7-2.6-1.2-.9-.5-1.8-1.2-2.8-2.1v14.5h-3.2V75.7h3.2v4.6zm0 19.5c2.9 3 6.2 4.6 10 4.6 1.4 0 2.7-.3 3.9-.9 1.2-.6 2.2-1.4 3-2.5.8-1.1 1.5-2.5 1.9-4.2.5-1.7.7-3.6.7-5.8 0-4.2-.8-7.4-2.4-9.6-1.6-2.2-3.9-3.3-6.8-3.3-3.9 0-7.2 2.1-10.2 6.2v15.5zm43-24.9c2.1 0 4 .4 5.7 1.1 1.7.7 3.2 1.8 4.4 3.2 1.2 1.4 2.1 3.1 2.8 5.1.6 2 1 4.3 1 6.8 0 2.6-.3 4.9-1 6.9s-1.6 3.8-2.8 5.2c-1.2 1.4-2.7 2.5-4.4 3.2-1.7.7-3.6 1.1-5.7 1.1s-4-.4-5.7-1.1c-1.7-.7-3.1-1.8-4.4-3.2-1.2-1.4-2.1-3.1-2.8-5.2-.7-2-1-4.4-1-7 0-2.6.3-4.9 1-6.9s1.6-3.7 2.8-5.1c1.2-1.4 2.7-2.5 4.4-3.2 1.7-.5 3.6-.9 5.7-.9zm0 29.5c1.6 0 3-.3 4.3-.8 1.3-.5 2.4-1.4 3.4-2.5.9-1.1 1.7-2.5 2.2-4.1s.8-3.6.8-5.8c0-2.2-.3-4.1-.8-5.7-.5-1.6-1.3-3-2.2-4.1-.9-1.1-2.1-1.9-3.4-2.4-1.3-.5-2.7-.8-4.3-.8-1.6 0-3.1.3-4.4.8-1.3.5-2.4 1.4-3.4 2.4-.9 1.1-1.7 2.4-2.2 4.1-.5 1.6-.8 3.6-.8 5.7 0 2.2.3 4.1.8 5.8.5 1.6 1.2 3 2.2 4.1.9 1.1 2.1 1.9 3.4 2.5 1.3.5 2.8.8 4.4.8z"/></g></g><circle class="st2" cx="43.8" cy="42.5" r="42.5"/><path class="st3" d="M43.3 41.8h-.2l-16.3-6.4c-.2-.1-.3-.2-.3-.4s.1-.3.2-.4l16.4-9.2c.1-.1.3-.1.4 0 .1.1.2.2.2.4l-.1 15.5c0 .1-.1.3-.2.4.1.1 0 .1-.1.1zM28 35l14.8 5.8.1-14.1L28 35z"/><path class="st3" d="M27 35.5c-.1 0-.2 0-.3-.1-.1-.1-.2-.3-.1-.5l4.2-10.6c.1-.2.3-.3.5-.3l12.2 1.5c.2 0 .3.2.4.4 0 .2-.1.4-.2.5l-16.4 9.2c-.2-.2-.2-.1-.3-.1zm4.5-10.6L27.9 34 42 26.1l-10.5-1.2z"/><path class="st3" d="M27 35.5c-.1 0-.2 0-.3-.1l-7.8-6c-.1-.1-.2-.3-.2-.4 0-.2.1-.3.3-.4L31 24c.2-.1.4 0 .5.1.1.1.2.3.1.5l-4.2 10.6-.3.3H27zm-6.9-6.3l6.7 5.1 3.6-9.1-10.3 4z"/><path class="st3" d="M19.2 29.5c-.1 0-.2 0-.3-.1-.1-.1-.2-.3-.1-.5l2.3-5.8c.1-.2.3-.3.5-.3l9.7 1.2c.2 0 .4.2.4.4s-.1.4-.3.5l-12 4.7c-.1-.1-.2-.1-.2-.1zm2.6-5.8L20 28.2l9.4-3.6-7.6-.9z"/><path class="st3" d="M12.8 38.4h-.2c-.2-.1-.3-.3-.2-.5l2.5-8.3c0-.1.1-.1.1-.2l6.2-6.5c.1-.2.4-.2.6-.1.2.1.3.3.2.5l-2.3 5.8s0 .1-.1.1l-6.4 9c-.1.2-.3.2-.4.2zm2.9-8.5L14 35.5l4.7-6.7 1.4-3.6-4.4 4.7zm27.7-3.6l-12.2-1.5c-.2 0-.4-.2-.4-.5 0-.2.2-.4.4-.4l12.2-.8c.1 0 .2 0 .3.1.1.1.1.2.1.3v2.3c0 .1-.1.2-.1.3-.1.2-.2.2-.3.2zm-7.5-1.8l7 .8V24l-7 .5z"/><path class="st3" d="M31.2 24.8l-9.8-1.2c-.2 0-.4-.2-.4-.4s.2-.4.4-.4l10.8-1.1h.1l11.1 1.4c.2 0 .4.2.4.5 0 .2-.2.4-.4.4l-12.2.8zm-5.7-1.5l5.7.7 7.6-.5-6.6-.8-6.7.6zm-7.7 21.3h-.2c-.2-.1-.3-.3-.3-.4L18.7 29c0-.2.1-.3.3-.4.1-.1.3 0 .4.1l7.8 6c.1.1.2.2.2.3 0 .1 0 .3-.1.3l-9.2 9.2c0 .1-.2.1-.3.1zm1.7-14.7L18.4 43l7.9-7.9-6.8-5.2z"/><path class="st3" d="M17.8 44.6c-.1 0-.3-.1-.3-.2l-5-6.2c-.1-.2-.1-.4 0-.5l6.4-9c.1-.2.3-.2.5-.2.2.1.3.3.3.5l-1.3 15.1c0 .2-.1.3-.3.4-.2.1-.2.1-.3.1zM13.4 38l4.1 5.1 1.1-12.4-5.2 7.3z"/><path class="st3" d="M21.5 58.6c-.1 0-.3-.1-.4-.2L13 46.6c0-.1-.1-.1-.1-.2l-.5-8.4c0-.2.1-.4.3-.4.2-.1.4 0 .5.1l5 6.2s.1.1.1.2l3.6 14c.1.2 0 .4-.2.5h-.2zm-7.7-12.4l6.6 9.6-3-11.4-4.1-5 .5 6.8z"/><path class="st3" d="M21.5 58.6s-.1 0 0 0l-4-.3c-.2 0-.3-.1-.4-.3L13 46.5c-.1-.2 0-.4.2-.5.2-.1.4 0 .6.1l8.1 11.8c.1.1.1.3 0 .5-.1.1-.3.2-.4.2zm-3.7-1.2l2.8.2-5.6-8.2 2.8 8z"/><path class="st3" d="M21.3 64.3c-.2 0-.3-.1-.4-.2L17.1 58c-.1-.1-.1-.3 0-.5.1-.1.2-.2.4-.2l4 .3c.2 0 .4.2.4.5l-.1 5.8c0 .2-.1.4-.3.4h-.2zm-3-6l2.6 4.1.1-3.9-2.7-.2z"/><path class="st3" d="M32.4 66.3L22 64.9c-.1 0-.1 0-.2-.1l-.8-.5c-.1-.1-.2-.2-.2-.4l.1-5.8c0-.2.1-.3.2-.4.1-.1.3-.1.5 0l11 7.7c.2.1.2.3.2.5 0 .3-.2.4-.4.4zM22.2 64l8.4 1.1-8.7-6.1-.1 4.7.4.3z"/><path class="st3" d="M35.5 74.3c-.1 0-.2 0-.3-.1l-13.4-9.4c-.2-.1-.2-.3-.2-.5.1-.2.3-.3.5-.3l10.3 1.4c.2 0 .3.1.4.3l3 8c.1.2 0 .4-.1.5 0 .1-.1.1-.2.1zm-11.7-9.2l10.7 7.5-2.4-6.4-8.3-1.1z"/><path class="st3" d="M35.5 74.3c-.2 0-.3-.1-.4-.3l-3-8c-.1-.2 0-.4.1-.5.1-.1.3-.1.5 0l11 6.5c.2.1.2.3.2.5s-.2.3-.4.4l-8 1.4zm-2.2-7.4l2.4 6.5 6.4-1.2-8.8-5.3z"/><path class="st3" d="M43.4 72.8c-.1 0-.2 0-.2-.1l-11-6.5c-.2-.1-.2-.3-.2-.5s.2-.3.4-.4l11-1.9c.1 0 .3 0 .4.1.1.1.2.2.2.3v8.4c0 .2-.1.3-.2.4-.3.1-.3.2-.4.2zm-9.7-6.7l9.3 5.5v-7.1l-9.3 1.6z"/><path class="st3" d="M32.4 66.3c-.1 0-.2 0-.3-.1 0-.1-.1-.2-.1-.3l-1.2-12.8c0-.2.1-.3.2-.4.1-.1.3-.1.5 0l12.2 7.8c.1.1.2.2.2.4V64c0 .2-.2.4-.4.4l-11.1 1.9c.1 0 .1 0 0 0zm-.7-12.4l1.1 11.4 10.1-1.8v-2.4l-11.2-7.2z"/><path class="st3" d="M32.4 66.3c-.1 0-.2 0-.3-.1l-11-7.7c-.1-.1-.2-.2-.2-.4s.1-.3.2-.4l9.7-5.1c.1-.1.3-.1.4 0 .1.1.2.2.2.3l1.2 12.8c0 .2-.1.3-.2.4.2.1.1.2 0 .2zm-10.1-8.1l9.6 6.7-1.1-11.2-8.5 4.5z"/><path class="st3" d="M21.5 58.6h-.2l-.3-.3-3.6-14c0-.2 0-.4.2-.5.2-.1.4-.1.5 0l13.4 8.9c.1.1.2.2.2.4s-.1.3-.2.4l-9.7 5.1h-.3zm-2.9-13.4l3.2 12.3 8.6-4.5-11.8-7.8z"/><path class="st3" d="M31.2 53.5c-.1 0-.2 0-.2-.1l-13.4-8.9c-.1-.1-.2-.2-.2-.3 0-.1 0-.3.1-.4l9.2-9.2c.1-.1.3-.2.4-.1.2 0 .3.2.3.3l4.2 18c0 .2 0 .4-.2.5 0 .2-.1.2-.2.2zm-12.7-9.4l12 7.9-3.8-16.2-8.2 8.3z"/><path class="st3" d="M31.2 53.5H31l-.3-.3-4.2-18c0-.2 0-.3.1-.4.1-.1.3-.1.5-.1L43.5 41c.2.1.3.2.3.4l.1 3.9c0 .2-.1.3-.2.4l-12.2 7.8h-.3zm-3.6-17.8l3.9 16.6L42.9 45l-.1-3.4-15.2-5.9z"/><path class="st3" d="M43.4 61.3c-.1 0-.2 0-.2-.1L31 53.4c-.1-.1-.2-.2-.2-.4s.1-.3.2-.4l12.2-7.8c.1-.1.3-.1.5 0 .1.1.2.2.2.4v15.6c0 .2-.1.3-.2.4-.2.1-.2.1-.3.1zM32 53l10.9 7V46.1L32 53z"/><g class="st0"><path class="st4" d="M45 21.7c-.1 0-.2 0-.3-.1-.2-.1-.2-.3-.2-.5l5.2-19.2c0-.1.1-.2.2-.3l12.2-6.1c.1 0 .2-.1.3 0l9.1 1.2h.1L80.9.2c.2.1.3.2.3.4s-.1.3-.2.4L69.2 8.7h-.1l-13.3 5.6-10.6 7.2c0 .1-.1.2-.2.2zm5.6-19.4l-4.9 17.9 9.6-6.6h.1L68.7 8 79.8.7l-8.4-3.2-8.9-1.2-11.9 6z"/><path class="st4" d="M45 21.7c-.1 0-.1 0-.2-.1l-.5-.3c-.1-.1-.2-.2-.2-.3 0-.1 0-.3.1-.4l12.3-15c.1-.2.3-.2.5-.1s.3.3.3.5l-1.2 8c0 .1-.1.2-.2.3l-10.6 7.2c-.1.1-.2.2-.3.2zM56.2 7.5L45.8 20.2l9.5-6.4.9-6.3z"/><path class="st4" d="M44.7 21.5c-.1 0-.1 0-.2-.1-.2-.1-.3-.3-.2-.5l5.5-19.1c0-.1.1-.2.3-.3.1-.1.3 0 .4 0l6.6 4c.1.1.2.2.2.3s0 .3-.1.4L45.1 21.3c-.1.1-.3.2-.4.2zm5.8-18.8l-4.7 16.4 10.4-13-5.7-3.4z"/><path class="st4" d="M55.6 14.4c-.1 0-.2 0-.3-.1-.1-.1-.2-.3-.2-.4l1.2-8c0-.1.1-.2.2-.3.1-.1.2-.1.3-.1L69 7.9c.2 0 .3.2.4.4 0 .2-.1.4-.3.5l-13.3 5.6h-.2zm1.6-7.9l-1 6.7 11.2-4.7-10.2-2z"/><path class="st4" d="M56.8 6.4c-.1 0-.2 0-.2-.1l-6.6-4c-.1-.1-.2-.2-.2-.4s.1-.3.2-.4l12.2-6.1c.2-.1.4-.1.5.1.1.1.2.4.1.5L57.2 6.2c-.1.1-.2.2-.3.2h-.1zM51.2 2l5.5 3.3 4.7-8.4L51.2 2z"/><path class="st4" d="M56.8 6.4c-.1 0-.3-.1-.3-.2-.1-.1-.1-.3 0-.5l5.5-10c.1-.2.3-.2.4-.2l9.1 1.2c.1 0 .2.1.3.2.1.1.1.2 0 .4l-1.6 4.9c0 .1-.2.2-.3.3L57 6.4h-.2zm5.8-10l-4.9 8.9 11.8-3.6 1.3-4.2-8.2-1.1z"/><path class="st4" d="M69.9 2.5c-.1 0-.3-.1-.3-.2-.1-.1-.1-.3-.1-.4l1.5-5c0-.1.1-.2.2-.3.1-.1.2-.1.4 0L80.9.1c.2.1.3.3.3.5s-.2.4-.4.4L69.9 2.5c0-.1 0 0 0 0zm1.8-4.8l-1.2 3.8L78.9.4l-7.2-2.7z"/><path class="st4" d="M75.7 4.1h-.1l-5.8-1.7c-.2-.1-.3-.3-.3-.5s.2-.4.4-.4L80.8.1c.2 0 .4.1.5.3.1.2 0 .4-.2.5L76 4c-.2.1-.3.1-.3.1zm-3.6-1.9l3.5 1 3.1-1.9-6.6.9z"/><path class="st4" d="M68.9 8.8L56.7 6.4c-.2 0-.3-.2-.4-.4 0-.2.1-.4.3-.4l13.1-4h.3l5.8 1.7c.2 0 .3.2.3.4s0 .3-.2.4l-6.7 4.7h-.3zM58.7 5.9l10.2 2 5.8-4L70 2.5 58.7 5.9z"/></g><path class="st3" d="M41.5 19.6c-.2 0-.3-.1-.4-.3L38 11.8c-.1-.1 0-.3 0-.4.1-.1.2-.2.4-.2h4.3c.1 0 .3.1.3.2.1.1.1.2.1.4L42 19.2c-.1.2-.2.3-.5.4.1 0 .1 0 0 0zm-2.4-7.5l2.3 5.4.9-5.4h-3.2z"/><path class="st3" d="M44.7 21.5c-.1 0-.2 0-.2-.1l-3.2-1.9c-.2-.1-.2-.3-.2-.5l1.2-7.5c0-.2.2-.4.4-.4s.4.1.4.4l2 9.4c0 .2 0 .4-.2.5 0 .1-.1.1-.2.1zM42 18.9l2.1 1.2-1.3-6.1-.8 4.9z"/><path class="st3" d="M43.4 24c-.2 0-.3-.1-.4-.3l-1.9-4.4c-.1-.2 0-.4.1-.5.1-.1.4-.1.5 0l3.2 1.9c.2.1.3.4.2.6l-1.3 2.5c-.1.1-.2.2-.4.2zm-.9-3.8l1 2.3.7-1.3-1.7-1z"/><path class="st3" d="M43.5 41.8c-.1 0-.2 0-.2-.1-.1-.1-.2-.2-.2-.4L43 25.8c0-.2.1-.3.2-.4.1-.1.3-.1.4 0L60 34.6c.2.1.2.2.2.4s-.1.3-.3.4l-16.3 6.4h-.1zm.3-15.2l.1 14.1L58.7 35l-14.9-8.4zm-.4-2.6c-.2 0-.4-.2-.4-.4s.1-.5.4-.5l1.4-.2-.4-1.8c-.1-.2.1-.5.3-.5.2-.1.5.1.5.3l.5 2.3c0 .1 0 .3-.1.4-.1.1-.2.2-.3.2l-1.9.2z"/><path class="st3" d="M59.8 35.5c-.1 0-.1 0-.2-.1l-16.4-9.2c-.2 0-.3-.2-.2-.4 0-.2.2-.3.4-.4l12.2-1.5c.2 0 .4.1.5.3l4.2 10.6c.1.2 0 .4-.1.5-.2.1-.3.2-.4.2zm-15-9.4L58.9 34l-3.6-9.2-10.5 1.3z"/><path class="st3" d="M59.8 35.5h-.1c-.1 0-.2-.1-.3-.3l-4.2-10.6c-.1-.2 0-.4.1-.5.1-.1.3-.2.5-.1l12 4.7c.2.1.3.2.3.4s0 .3-.2.4l-7.8 6c-.1-.1-.2 0-.3 0zm-3.4-10.3l3.6 9.1 6.7-5.1-10.3-4z"/><path class="st3" d="M67.6 29.5h-.2l-12-4.7c-.2-.1-.3-.3-.3-.5s.2-.4.4-.4l9.7-1.2c.2 0 .4.1.5.3l2.3 5.8c.1.2 0 .4-.1.5-.1.1-.2.2-.3.2zm-10.2-4.9l9.4 3.6-1.8-4.5-7.6.9z"/><path class="st3" d="M74 38.4c-.1 0-.3-.1-.4-.2l-6.4-9s0-.1-.1-.1l-2.3-5.8c-.1-.2 0-.4.2-.5.2-.1.4-.1.6.1l6.2 6.5c0 .1.1.1.1.2l2.5 8.3c.1.2 0 .4-.2.5H74zm-6-9.6l4.7 6.7-1.7-5.6-4.5-4.7 1.5 3.6zm-24.6-2.5c-.1 0-.2 0-.3-.1-.1-.1-.1-.2-.1-.3v-2.3c0-.1.1-.2.1-.3.1-.1.2-.1.3-.1l12.2.8c.2 0 .4.2.4.4s-.2.4-.4.5l-12.2 1.4zm.4-2.3v1.3l7-.8-7-.5z"/><path class="st3" d="M55.6 24.8L43.4 24c-.2 0-.4-.2-.4-.4s.2-.4.4-.5l11.1-1.4h.1l10.8 1.1c.2 0 .4.2.4.4s-.2.4-.4.4l-9.8 1.2zM48 23.4l7.6.5 5.7-.7-6.7-.7-6.6.9zm20.9 21.2c-.1 0-.2 0-.3-.1l-9.2-9.2c-.1-.1-.1-.2-.1-.3 0-.1.1-.2.2-.3l7.8-6c.1-.1.3-.1.4-.1.1.1.2.2.3.4l1.3 15.1c0 .2-.1.4-.3.4.1.1 0 .1-.1.1zm-8.4-9.5l7.9 7.9-1.2-13.1-6.7 5.2z"/><path class="st3" d="M68.9 44.6h-.1c-.2-.1-.3-.2-.3-.4l-1.3-15.1c0-.2.1-.4.3-.5.2-.1.4 0 .5.2l6.4 9c.1.2.1.4 0 .5l-5 6.2c-.2.1-.3.1-.5.1zm-.7-14L69.3 43l4.1-5.1-5.2-7.3z"/><path class="st3" d="M65.3 58.6h-.2c-.2-.1-.3-.3-.2-.5l3.6-14c0-.1 0-.1.1-.2l5-6.2c.1-.1.3-.2.5-.1s.3.2.3.4l-.5 8.3c0 .1 0 .2-.1.2l-8.1 11.8c-.1.2-.3.3-.4.3zm4.1-14.2l-3 11.4 6.6-9.6.4-6.8-4 5z"/><path class="st3" d="M65.3 58.6c-.2 0-.3-.1-.4-.2-.1-.1-.1-.3 0-.5L73 46.1c.1-.2.4-.2.6-.1.2.1.3.3.2.5L69.7 58c-.1.2-.2.3-.4.3l-4 .3zm6.5-9.2l-5.6 8.2 2.8-.2 2.8-8z"/><path class="st3" d="M65.4 64.3h-.1c-.2-.1-.3-.2-.3-.4l-.1-5.8c0-.2.2-.4.4-.5l4-.3c.2 0 .3.1.4.2.1.1.1.3 0 .5l-3.8 6.1c-.2.2-.3.2-.5.2zm.4-5.8l.1 3.9 2.6-4.1-2.7.2z"/><path class="st3" d="M54.3 66.3c-.2 0-.3-.1-.4-.3-.1-.2 0-.4.2-.5l11-7.7c.1-.1.3-.1.5 0 .1.1.2.2.2.4l.1 5.8c0 .1-.1.3-.2.4l-.8.5c-.1 0-.1.1-.2.1l-10.4 1.3c.1 0 .1 0 0 0zM64.9 59l-8.8 6.2 8.4-1.1.5-.3-.1-4.8z"/><path class="st3" d="M51.3 74.3c-.1 0-.2 0-.3-.1-.2-.1-.2-.3-.1-.5l3-8c.1-.2.2-.3.4-.3L64.6 64c.2 0 .4.1.5.3.1.2 0 .4-.2.5l-13.4 9.4c0 .1-.1.1-.2.1zm3.4-8.1l-2.4 6.4L63 65.1l-8.3 1.1z"/><path class="st3" d="M51.3 74.3l-8-1.5c-.2 0-.3-.2-.4-.4 0-.2.1-.4.2-.5l11-6.5c.2-.1.4-.1.5 0 .1.1.2.3.1.5l-3 8c0 .3-.2.4-.4.4zm-6.7-2.2l6.4 1.2 2.4-6.5-8.8 5.3z"/><path class="st3" d="M43.4 72.8c-.1 0-.2 0-.2-.1-.1-.1-.2-.2-.2-.4v-8.4c0-.1.1-.3.2-.3.1-.1.2-.1.4-.1l11 1.9c.2 0 .3.2.4.4 0 .2-.1.4-.2.5l-11 6.5c-.3-.1-.3 0-.4 0zm.4-8.4v7.1l9.3-5.5-9.3-1.6z"/><path class="st3" d="M54.3 66.3l-11-1.9c-.2 0-.4-.2-.4-.4v-3.1c0-.2.1-.3.2-.4l12.2-7.8c.1-.1.3-.1.5 0 .1.1.2.3.2.4l-1.2 12.8c0 .1-.1.2-.2.3-.1 0-.2.1-.3.1zm-10.5-2.8l10.1 1.8L55 53.9l-11.2 7.2v2.4z"/><path class="st3" d="M54.3 66.3c-.1 0-.2 0-.2-.1-.1-.1-.2-.3-.2-.4L55.1 53c0-.1.1-.3.2-.3.1-.1.3-.1.4 0l9.7 5.1c.1.1.2.2.2.4s-.1.3-.2.4l-11 7.7c.1-.1 0 0-.1 0zM56 53.7l-1.1 11.2 9.6-6.7-8.5-4.5z"/><path class="st3" d="M65.3 58.6c-.1 0-.1 0-.2-.1l-9.7-5.1c-.1-.1-.2-.2-.2-.4s.1-.3.2-.4l13.4-8.9c.2-.1.4-.1.5 0 .1.1.2.3.2.5l-3.6 14c0 .1-.1.2-.3.3-.2.1-.2.1-.3.1zM56.4 53l8.6 4.5 3.2-12.3L56.4 53z"/><path class="st3" d="M55.6 53.5c-.1 0-.2 0-.3-.1-.1-.1-.2-.3-.2-.5l4.2-18c0-.2.2-.3.3-.3.2 0 .3 0 .4.1l9.2 9.2c.1.1.1.2.1.4 0 .1-.1.3-.2.3l-13.4 8.9h-.1zM60 35.9l-3.8 16.2 12-7.9-8.2-8.3z"/><path class="st3" d="M55.6 53.5c-.1 0-.2 0-.2-.1l-12.2-7.8c-.1-.1-.2-.2-.2-.4l.1-3.9c0-.2.1-.3.3-.4l16.3-6.4c.2-.1.3 0 .5.1.1.1.2.3.1.4l-4.2 18c0 .1-.1.3-.3.3-.1.2-.2.2-.2.2zm-11.8-8.4l11.4 7.3 3.9-16.6-15.3 5.9v3.4z"/><path class="st3" d="M43.4 61.3c-.1 0-.1 0-.2-.1s-.2-.2-.2-.4V45.3c0-.2.1-.3.2-.4.1-.1.3-.1.5 0l12.2 7.8c.1.1.2.2.2.4s-.1.3-.2.4l-12.2 7.8h-.3zm.4-15.2V60l10.9-7-10.9-6.9z"/><path class="st5" d="M141.1 32.9c-.3-1.3-.8-2.5-1.6-3.7-.8-1.1-1.8-2.1-3-3-1.2-.8-2.6-1.5-4.2-2s-3.2-.7-5-.7c-2.5 0-4.8.4-6.9 1.2-2.1.8-3.8 2.1-5.3 3.7s-2.6 3.6-3.4 6.1c-.8 2.4-1.2 5.2-1.2 8.4s.4 6 1.2 8.5c.8 2.4 1.9 4.5 3.4 6.2 1.5 1.7 3.2 2.9 5.3 3.8 2 .9 4.3 1.3 6.8 1.3 3.8 0 6.9-.8 9.4-2.5s4-4.2 4.6-7.4h3.3c-.3 2.1-1 4-2 5.6-1 1.6-2.2 3-3.7 4.2-1.5 1.1-3.2 2-5.2 2.6-2 .6-4.1.9-6.3.9-3.1 0-5.9-.5-8.4-1.6s-4.6-2.6-6.3-4.6c-1.7-2-3.1-4.4-4-7.2-.9-2.8-1.4-6-1.4-9.5s.5-6.6 1.4-9.4c.9-2.8 2.3-5.2 4-7.1 1.8-2 3.9-3.5 6.3-4.5 2.5-1.1 5.2-1.6 8.3-1.6 2.1 0 4.1.3 6 .9 1.9.6 3.6 1.5 5.2 2.6 1.5 1.1 2.8 2.4 3.9 4 1 1.5 1.8 3.2 2.2 5.1h-3.4zm26.8 3.5c-.3-.1-.6-.1-1-.1h-1.2c-.9 0-1.8.2-2.6.6-.9.4-1.7.9-2.4 1.5-.8.6-1.5 1.3-2.2 2-.7.8-1.2 1.5-1.7 2.3V65h-3.2V34h3.2v4.3c.9-1.1 1.8-1.9 2.7-2.6.9-.7 1.8-1.2 2.6-1.6.8-.4 1.7-.6 2.4-.7.8-.1 1.5-.2 2.1-.2h.6c.2 0 .4 0 .6.1v3.1zm18.6 29.5c-2.2 0-4.1-.4-5.9-1.1-1.8-.7-3.3-1.8-4.6-3.2-1.3-1.4-2.3-3.1-2.9-5.2-.7-2-1-4.3-1-6.9 0-2.5.3-4.8 1-6.8s1.6-3.7 2.8-5.1c1.2-1.4 2.7-2.5 4.4-3.2 1.7-.7 3.6-1.1 5.6-1.1 2.1 0 4 .4 5.7 1.1 1.7.7 3.2 1.8 4.4 3.2 1.2 1.4 2.1 3.1 2.8 5.1.6 2 1 4.3 1 6.8v.7h-24.5c.2 2.1.5 3.9 1.2 5.5.6 1.6 1.4 2.8 2.4 3.9 1 1 2.1 1.8 3.4 2.3 1.3.5 2.7.8 4.2.8 1.1 0 2.1-.1 3.2-.4 1.1-.3 2-.6 2.9-1.1.9-.5 1.6-1.1 2.2-1.9.6-.7.9-1.6 1-2.6h3.2c-.3 1.5-.8 2.8-1.6 3.9-.7 1.1-1.7 2.1-2.8 2.9-1.1.8-2.3 1.4-3.7 1.8-1.3.4-2.8.6-4.4.6zm10-18.9c-.5-3.6-1.7-6.2-3.6-8-1.9-1.8-4.2-2.6-7-2.6-1.4 0-2.6.2-3.8.6-1.2.4-2.2 1.1-3.1 2-.9.9-1.7 2-2.3 3.3-.6 1.3-1.1 2.9-1.3 4.7h21.1zm32 14c-1.1 1-2.2 1.8-3.2 2.4-1 .6-2.1 1.1-3.1 1.5-1 .4-2 .6-3 .7-1 .1-2 .2-3 .2-1.4 0-2.6-.2-3.8-.6-1.2-.4-2.2-1-3-1.8-.9-.8-1.5-1.7-2-2.8-.5-1.1-.7-2.3-.7-3.6 0-3.6 1.5-6.3 4.6-8.3 3-2 7.6-3 13.7-3h3.7c0-1.4-.1-2.6-.2-3.8-.2-1.1-.5-2.1-1.1-3-.6-.8-1.5-1.5-2.6-2-1.2-.5-2.7-.7-4.7-.7-2.9 0-5.1.5-6.6 1.4-1.5.9-2.3 2.3-2.6 4.1h-3.2c.3-2.9 1.5-5.1 3.5-6.6 2-1.4 4.9-2.1 8.8-2.1 2.2 0 4 .3 5.5.8s2.7 1.3 3.7 2.3c.9 1 1.6 2.2 2.1 3.7.4 1.4.6 3 .6 4.8V65h-3.2v-4zm0-12h-4.9c-4.7 0-8.1.7-10.4 2-2.3 1.3-3.4 3.3-3.4 5.7 0 1.8.7 3.3 2.2 4.3 1.4 1 3.4 1.5 5.9 1.5 1.1 0 2.2-.2 3.2-.5s2-.8 2.9-1.3c.9-.5 1.7-1.1 2.5-1.8s1.4-1.3 2-1.9v-8zm23.9 16.3c-.5.1-.9.1-1.4.1h-1.4c-1.4 0-2.5-.2-3.4-.6-.8-.4-1.5-1-1.9-1.7-.4-.8-.7-1.7-.9-2.9-.1-1.2-.2-2.5-.2-4.1v-19h-4V34h4v-8.1h3.2V34h5.1v3.2h-5.1v19.3c0 1.3.1 2.3.3 3.1.2.8.5 1.4.8 1.8.4.4.8.7 1.4.8.5.1 1.2.2 1.9.2h1.5v2.9zm10.4-.3h-3.2V34h3.2v31zm.1-38.9h-3.2v-5h3.2v5zm33.8 7.9l-11.8 31H282l-11.8-31h3.3l10 26.7 10-26.7h3.2zm19.7 31.9c-2.2 0-4.1-.4-5.9-1.1-1.8-.7-3.3-1.8-4.6-3.2-1.3-1.4-2.3-3.1-2.9-5.2-.7-2-1-4.3-1-6.9 0-2.5.3-4.8 1-6.8s1.6-3.7 2.8-5.1c1.2-1.4 2.7-2.5 4.4-3.2 1.7-.7 3.6-1.1 5.6-1.1 2.1 0 4 .4 5.7 1.1 1.7.7 3.2 1.8 4.4 3.2 1.2 1.4 2.1 3.1 2.8 5.1.6 2 1 4.3 1 6.8v.7h-24.5c.2 2.1.5 3.9 1.2 5.5.6 1.6 1.4 2.8 2.4 3.9 1 1 2.1 1.8 3.4 2.3 1.3.5 2.7.8 4.2.8 1.1 0 2.1-.1 3.2-.4 1.1-.3 2-.6 2.9-1.1.9-.5 1.6-1.1 2.2-1.9.6-.7.9-1.6 1-2.6h3.2c-.3 1.5-.8 2.8-1.6 3.9-.7 1.1-1.7 2.1-2.8 2.9-1.1.8-2.3 1.4-3.7 1.8-1.3.4-2.8.6-4.4.6zm10-18.9c-.5-3.6-1.7-6.2-3.6-8-1.9-1.8-4.2-2.6-7-2.6-1.4 0-2.6.2-3.8.6-1.2.4-2.2 1.1-3.1 2s-1.7 2-2.3 3.3c-.6 1.3-1.1 2.9-1.3 4.7h21.1zm80.1 18h-31.7V21.1h30.7v3.2H378v16.3h25.7v3.2H378v18.1h28.5V65zm29.1 0l-9-12.8-9 12.8h-3.9l11-15.6-11-15.5h3.9l9 12.8 9-12.8h3.9l-11 15.5 11 15.6h-3.9zm13.9-26.4c1-1.2 2-2.2 2.9-2.9.9-.7 1.9-1.3 2.7-1.6.9-.4 1.7-.6 2.5-.7.8-.1 1.6-.2 2.4-.2 1.9 0 3.6.4 5.1 1.2 1.5.8 2.8 1.9 3.8 3.3s1.8 3.1 2.3 5.1c.5 2 .8 4.2.8 6.6 0 2.5-.3 4.8-.9 6.9-.6 2-1.5 3.8-2.6 5.2-1.1 1.4-2.4 2.6-3.9 3.4-1.5.8-3.1 1.2-4.9 1.2-.7 0-1.5 0-2.3-.1-.8-.1-1.6-.2-2.5-.5-.9-.3-1.7-.7-2.6-1.2-.9-.5-1.8-1.2-2.8-2.1v14.5h-3.2V34h3.2v4.6zm0 19.5c2.9 3 6.2 4.6 10 4.6 1.4 0 2.7-.3 3.9-.9 1.2-.6 2.2-1.4 3-2.5.8-1.1 1.5-2.5 1.9-4.2.5-1.7.7-3.6.7-5.8 0-4.2-.8-7.4-2.4-9.6-1.6-2.2-3.9-3.3-6.8-3.3-3.9 0-7.2 2.1-10.2 6.2v15.5zm42.9-24.9c2.1 0 4 .4 5.7 1.1 1.7.7 3.2 1.8 4.4 3.2 1.2 1.4 2.1 3.1 2.8 5.1.6 2 1 4.3 1 6.8 0 2.6-.3 4.9-1 6.9s-1.6 3.8-2.8 5.2c-1.2 1.4-2.7 2.5-4.4 3.2-1.7.7-3.6 1.1-5.7 1.1s-4-.4-5.7-1.1c-1.7-.7-3.1-1.8-4.4-3.2-1.2-1.4-2.1-3.1-2.8-5.2-.7-2-1-4.4-1-7 0-2.6.3-4.9 1-6.9s1.6-3.7 2.8-5.1c1.2-1.4 2.7-2.5 4.4-3.2 1.7-.6 3.6-.9 5.7-.9zm0 29.4c1.6 0 3-.3 4.3-.8 1.3-.5 2.4-1.4 3.4-2.5.9-1.1 1.7-2.5 2.2-4.1.5-1.6.8-3.6.8-5.8 0-2.2-.3-4.1-.8-5.7-.5-1.6-1.3-3-2.2-4.1-.9-1.1-2.1-1.9-3.4-2.4-1.3-.5-2.7-.8-4.3-.8-1.6 0-3.1.3-4.4.8-1.3.5-2.4 1.4-3.4 2.4-.9 1.1-1.7 2.4-2.2 4.1-.5 1.6-.8 3.6-.8 5.7 0 2.2.3 4.1.8 5.8.5 1.6 1.2 3 2.2 4.1.9 1.1 2.1 1.9 3.4 2.5 1.3.6 2.8.8 4.4.8z"/></svg>