<svg version="1" xmlns="http://www.w3.org/2000/svg" width="450.667" height="450.667" viewBox="0 0 338 338"><path d="M153.8 1.5c-.2.2-3 .6-6.3 1-3.3.3-8.2 1.1-11 1.6-2.7.6-6.1 1.3-7.5 1.5-6.3 1.2-24.4 7.9-33.5 12.3-40.8 19.9-71.7 54.8-86.3 97.6-7 20.3-8.6 30.6-8.5 55 0 17.8.3 21.4 2.6 32.6 8.5 40.3 27.9 72.1 60.9 99.5 15.5 13 40.7 25.3 64.4 31.5 11.2 3 13.2 3.2 34.9 3.6 21.1.5 26.6.2 40-2.2 1.7-.3 7.1-1.7 12-3.1 45-12.8 83.6-44.8 104.8-86.9 5.9-11.8 12.2-30 14.1-41 .3-1.7.8-4.1 1.1-5.4 1.4-7.2 2-15.2 2-29.1 0-13.6-.3-17.9-1.9-29-.2-1.4-1.1-5.5-2-9.2C319.3 70.7 272.1 22.3 211.8 6.6c-9.3-2.4-11-2.7-23.8-4.5-5.9-.8-33.4-1.3-34.2-.6z"/></svg>