<svg xmlns="http://www.w3.org/2000/svg" width="38" height="30"><path fill-rule="evenodd" fill="#FFF" d="M36.886 29.468H1.48a.585.585 0 0 1-.579-.59V.7c0-.326.26-.59.579-.59h35.406c.32 0 .579.264.579.59v28.178c0 .326-.259.59-.579.59zm-2.897-25.82H4.377v20.223l8.355-11.411a.232.232 0 0 1 .185-.097.23.23 0 0 1 .189.089l7.063 8.853 5.526-4.951a.235.235 0 0 1 .327.013l7.967 8.399V3.648zm-8.75 8.518c-1.569 0-2.842-1.295-2.842-2.893 0-1.597 1.273-2.893 2.842-2.893 1.569 0 2.842 1.296 2.842 2.893 0 1.598-1.273 2.893-2.842 2.893z"/></svg>