<svg xmlns="http://www.w3.org/2000/svg" width="37" height="30"><path fill-rule="evenodd" fill="#CDCDCD" d="M36.348 29.468H.942a.584.584 0 0 1-.579-.59V.7c0-.326.259-.59.579-.59h35.406c.32 0 .579.264.579.59v28.178c0 .326-.259.59-.579.59zm-2.897-25.82H3.839v20.223l8.354-11.411a.234.234 0 0 1 .374-.008l7.063 8.853 5.526-4.951a.235.235 0 0 1 .327.013l7.968 8.399V3.648zM21.859 9.273c0-1.597 1.272-2.893 2.842-2.893 1.568 0 2.842 1.296 2.842 2.893 0 1.598-1.274 2.894-2.842 2.894-1.57 0-2.842-1.296-2.842-2.894z"/></svg>